<?xml version="1.0" ?>
<svg xmlns="http://www.w3.org/2000/svg" version="1.1" width="633" height="512" viewBox="0 0 520 280">
  <defs/>
  <g>
    <path stroke-width="1.0" fill="rgb(254, 254, 254)" opacity="0.0" d="M 316.5 512.0 L 0.0 512.0 L 0.0 256.0 L 0.0 0.0 L 316.5 0.0 L 633.0 0.0 L 633.0 256.0 L 633.0 512.0 L 316.5 512.0M 339.8000183105469 500.0 C 343.3000183105469 500.0 348.1000061035156 499.5 350.6000061035156 498.8999938964844 L 355.0 497.8000183105469 L 355.0 487.70001220703125 C 355.0 478.3000183105469 354.8999938964844 477.8000183105469 353.3000183105469 479.20001220703125 C 352.3000183105469 480.1000061035156 350.1000061035156 481.5 348.3000183105469 482.3999938964844 C 346.5 483.3000183105469 343.3000183105469 484.0 341.0 484.0 C 338.8000183105469 484.0 335.3999938964844 483.3999938964844 333.6000061035156 482.6000061035156 C 331.8000183105469 481.8000183105469 329.0 479.6000061035156 327.5 477.6000061035156 C 325.8999938964844 475.5 324.6000061035156 472.3000183105469 324.3000183105469 469.70001220703125 C 324.0 467.3999938964844 324.3000183105469 463.6000061035156 324.8999938964844 461.3000183105469 C 325.6000061035156 458.8000183105469 327.3999938964844 456.0 329.5 454.1000061035156 C 331.3999938964844 452.5 334.8000183105469 450.6000061035156 336.8999938964844 450.0 C 339.1000061035156 449.3999938964844 342.20001220703125 449.20001220703125 343.70001220703125 449.6000061035156 C 345.20001220703125 449.8999938964844 348.3999938964844 451.3000183105469 350.8000183105469 452.70001220703125 L 355.0 455.1000061035156 L 355.0 445.6000061035156 L 355.0 436.20001220703125 L 351.8000183105469 435.1000061035156 C 350.0 434.6000061035156 346.6000061035156 433.8000183105469 344.3000183105469 433.5 C 342.0 433.1000061035156 337.5 433.3999938964844 334.3000183105469 434.0 C 331.1000061035156 434.70001220703125 326.3000183105469 436.3999938964844 323.6000061035156 437.8000183105469 C 321.0 439.3000183105469 317.1000061035156 442.3999938964844 314.8999938964844 444.8000183105469 C 312.8000183105469 447.20001220703125 310.20001220703125 451.70001220703125 309.0 454.6000061035156 C 307.70001220703125 458.3000183105469 307.0 462.3999938964844 307.0 467.3000183105469 C 307.1000061035156 471.3000183105469 307.70001220703125 476.20001220703125 308.3999938964844 478.3000183105469 C 309.20001220703125 480.3999938964844 311.0 483.8999938964844 312.5 486.0 C 314.0 488.20001220703125 316.8000183105469 491.20001220703125 318.8000183105469 492.6000061035156 C 320.70001220703125 494.1000061035156 324.8999938964844 496.3999938964844 327.8999938964844 497.70001220703125 C 331.70001220703125 499.20001220703125 335.6000061035156 500.0 339.8000183105469 500.0M 429.3999938964844 500.0 C 430.20001220703125 500.0 431.5 498.20001220703125 432.3999938964844 496.0 C 434.0 492.0 434.0 492.0 439.5 492.0 C 445.0 492.0 445.0 492.0 446.6000061035156 496.0 C 447.5 498.20001220703125 448.8000183105469 500.0 449.6000061035156 500.0 C 450.3999938964844 500.0 451.0 499.6000061035156 451.0 499.20001220703125 C 451.0 498.8000183105469 448.6000061035156 492.8000183105469 445.6000061035156 485.8999938964844 C 442.70001220703125 479.1000061035156 439.8999938964844 473.70001220703125 439.3999938964844 473.8999938964844 C 438.8999938964844 474.1000061035156 436.1000061035156 479.70001220703125 433.3000183105469 486.3000183105469 C 430.3999938964844 492.8999938964844 428.0 498.70001220703125 428.0 499.1000061035156 C 428.0 499.6000061035156 428.6000061035156 500.0 429.3999938964844 500.0M 455.5 500.0 C 456.70001220703125 500.0 457.0 498.20001220703125 457.0 489.8000183105469 L 457.1000061035156 479.5 L 466.8000183105469 489.8000183105469 C 472.1000061035156 495.3999938964844 476.70001220703125 500.0 477.0 500.0 C 477.3000183105469 500.0 477.5 494.0 477.3999938964844 486.8000183105469 C 477.20001220703125 476.5 476.8999938964844 473.5 475.8000183105469 473.5 C 474.8999938964844 473.5 474.3999938964844 476.0 474.0 482.8000183105469 L 473.5 492.1000061035156 L 464.1000061035156 482.6000061035156 C 459.0 477.3000183105469 454.6000061035156 473.0 454.3999938964844 473.0 C 454.20001220703125 473.0 454.0 479.1000061035156 454.0 486.5 C 454.0 497.8000183105469 454.20001220703125 500.0 455.5 500.0M 481.5 500.0 C 482.3000183105469 500.0 483.8999938964844 498.20001220703125 485.0 496.0 C 487.0 492.1000061035156 487.20001220703125 492.0 492.3999938964844 492.0 C 497.70001220703125 492.0 497.70001220703125 492.0 499.3000183105469 496.0 C 500.20001220703125 498.3000183105469 501.5 500.0 502.3999938964844 500.0 C 503.3000183105469 500.0 504.0 499.8000183105469 504.0 499.6000061035156 C 504.0 499.3999938964844 501.3999938964844 493.0 498.20001220703125 485.5 L 492.3000183105469 471.8999938964844 L 489.5 478.20001220703125 C 488.0 481.70001220703125 485.3000183105469 488.0 483.3999938964844 492.3000183105469 C 480.8999938964844 498.1000061035156 480.3999938964844 500.0 481.5 500.0M 512.0 500.0 C 515.7999877929688 500.0 517.0 499.6000061035156 517.0 498.5 C 517.0 497.5 515.9000244140625 497.0 513.5 497.0 L 510.0 497.0 L 510.0 485.0 C 510.0 475.0 509.8000183105469 473.0 508.5 473.0 C 507.20001220703125 473.0 507.0 475.20001220703125 507.0 486.5 L 507.0 500.0 L 512.0 500.0M 524.5 500.0 C 525.7000122070312 500.0 526.0 498.70001220703125 526.0 494.3999938964844 C 526.0 489.70001220703125 526.7000122070312 487.5 530.0 481.5 C 532.2000122070312 477.5 534.0 474.0 534.0 473.6000061035156 C 534.0 473.3000183105469 533.4000244140625 473.0 532.6000366210938 473.0 C 531.7999877929688 473.0 529.7999877929688 475.5 528.1000366210938 478.5 C 526.4000244140625 481.5 524.7999877929688 484.0 524.5 484.0 C 524.2000122070312 484.0 522.6000366210938 481.5 520.9000244140625 478.5 C 519.2000122070312 475.5 517.2000122070312 473.0 516.4000244140625 473.0 C 515.6000366210938 473.0 515.0 473.20001220703125 515.0 473.5 C 515.0 473.8000183105469 516.7999877929688 477.3999938964844 519.0 481.3999938964844 C 522.2999877929688 487.5 523.0 489.6000061035156 523.0 494.3000183105469 C 523.0 498.70001220703125 523.2999877929688 500.0 524.5 500.0M 542.7999877929688 500.0 C 544.4000244140625 500.0 546.9000244140625 499.1000061035156 548.4000244140625 497.8999938964844 C 550.1000366210938 496.6000061035156 551.0 494.8999938964844 551.0 493.0 C 551.0 491.3999938964844 550.7000122070312 489.3999938964844 550.4000244140625 488.5 C 550.0 487.6000061035156 547.5 485.8000183105469 544.7999877929688 484.3999938964844 C 542.1000366210938 483.0 539.7000122070312 481.3000183105469 539.2999877929688 480.3999938964844 C 539.0 479.6000061035156 539.2999877929688 478.3000183105469 540.0 477.5 C 540.7000122070312 476.70001220703125 542.1000366210938 476.0 543.1000366210938 476.0 C 544.2000122070312 476.0 545.9000244140625 476.5 547.0 477.20001220703125 C 548.0 477.8999938964844 549.2999877929688 478.1000061035156 549.7000122070312 477.6000061035156 C 550.1000366210938 477.20001220703125 549.4000244140625 476.0 548.1000366210938 474.8999938964844 C 546.7999877929688 473.8999938964844 544.6000366210938 473.0 543.2000122070312 473.0 C 541.7999877929688 473.0 539.6000366210938 474.0 538.2999877929688 475.20001220703125 C 537.0 476.3999938964844 536.0 478.3000183105469 536.0 479.3999938964844 C 536.0 480.6000061035156 536.4000244140625 482.0 536.7999877929688 482.6000061035156 C 537.2000122070312 483.3000183105469 539.7999877929688 485.1000061035156 542.5 486.70001220703125 C 545.7999877929688 488.6000061035156 547.6000366210938 490.3999938964844 547.7999877929688 491.8999938964844 C 548.0 493.1000061035156 547.6000366210938 494.8000183105469 547.0 495.6000061035156 C 546.2999877929688 496.3000183105469 544.5 497.0 542.9000244140625 497.0 C 541.1000366210938 497.0 539.7000122070312 496.3000183105469 539.0 495.0 C 538.4000244140625 493.8999938964844 537.2999877929688 493.0 536.5 493.0 C 535.7000122070312 493.0 535.0 493.5 535.0 494.0 C 535.0 494.6000061035156 536.1000366210938 496.20001220703125 537.5 497.5 C 538.9000244140625 499.0 541.1000366210938 500.0 542.7999877929688 500.0M 556.5 500.0 C 557.7999877929688 500.0 558.0 497.8000183105469 558.0 486.5 C 558.0 475.20001220703125 557.7999877929688 473.0 556.5 473.0 C 555.2000122070312 473.0 555.0 475.20001220703125 555.0 486.5 C 555.0 497.8000183105469 555.2000122070312 500.0 556.5 500.0M 569.7999877929688 500.0 C 571.4000244140625 500.0 573.9000244140625 499.0 575.4000244140625 497.8999938964844 C 577.7000122070312 496.1000061035156 578.1000366210938 495.1000061035156 577.7999877929688 491.6000061035156 C 577.5 487.8000183105469 577.2000122070312 487.3000183105469 572.2000122070312 484.6000061035156 C 569.2999877929688 483.1000061035156 566.6000366210938 481.20001220703125 566.2999877929688 480.3999938964844 C 566.0 479.6000061035156 566.2999877929688 478.3000183105469 567.0 477.5 C 567.7000122070312 476.70001220703125 569.1000366210938 476.0 570.1000366210938 476.0 C 571.2000122070312 476.0 572.9000244140625 476.5 574.0 477.20001220703125 C 575.0 477.8999938964844 576.2000122070312 478.1000061035156 576.6000366210938 477.70001220703125 C 577.0 477.3000183105469 576.5 476.1000061035156 575.5 475.0 C 574.4000244140625 473.8000183105469 572.4000244140625 473.0 570.7000122070312 473.0 C 568.9000244140625 473.0 566.6000366210938 473.8999938964844 565.2999877929688 475.20001220703125 C 564.0 476.3999938964844 563.0 478.3999938964844 563.0 479.6000061035156 C 563.0 480.8000183105469 564.2999877929688 482.8000183105469 565.9000244140625 484.20001220703125 C 567.5 485.3999938964844 570.2000122070312 487.3000183105469 571.9000244140625 488.20001220703125 C 574.0 489.3999938964844 575.0 490.70001220703125 575.0 492.3000183105469 C 575.0 493.5 574.5 495.1000061035156 573.7999877929688 495.8000183105469 C 573.1000366210938 496.5 571.4000244140625 497.0 569.7999877929688 497.0 C 568.1000366210938 497.0 566.7000122070312 496.3000183105469 566.0 495.0 C 565.4000244140625 493.8999938964844 564.2999877929688 493.0 563.5 493.0 C 562.7000122070312 493.0 562.0 493.5 562.0 494.0 C 562.0 494.6000061035156 563.1000366210938 496.20001220703125 564.5 497.5 C 565.9000244140625 499.0 568.1000366210938 500.0 569.7999877929688 500.0M 22.899999618530273 499.0 L 31.700000762939453 499.0 L 33.70000076293945 493.8000183105469 L 35.70000076293945 488.5 L 47.29999923706055 488.20001220703125 L 58.79999923706055 487.8999938964844 L 60.79999923706055 493.20001220703125 L 62.79999923706055 498.5 L 71.4000015258789 498.8000183105469 C 77.70000457763672 499.0 80.0 498.70001220703125 80.0 497.8999938964844 C 80.0 497.20001220703125 74.80000305175781 482.8000183105469 68.4000015258789 465.8000183105469 L 56.70000076293945 435.0 L 47.60000228881836 435.0 L 38.5 435.0 L 28.80000114440918 460.3000183105469 C 23.5 474.1000061035156 17.899999618530273 488.5 16.5 492.3000183105469 L 14.0 499.0 L 22.899999618530273 499.0M 93.30000305175781 498.8000183105469 L 101.5 498.5 L 102.0 479.6000061035156 L 102.5 460.8000183105469 L 117.30000305175781 479.8999938964844 L 132.1999969482422 499.1000061035156 L 140.3000030517578 498.8000183105469 L 148.5 498.5 L 148.5 467.0 L 148.5 435.5 L 140.3000030517578 435.20001220703125 L 132.0 434.8999938964844 L 131.8000030517578 454.20001220703125 L 131.5 473.5 L 116.5999984741211 454.20001220703125 L 101.70000457763672 435.0 L 93.30000305175781 435.0 L 85.0 435.0 L 85.0 467.0 L 85.0 499.1000061035156 L 93.30000305175781 498.8000183105469M 161.60000610351562 499.0 L 170.10000610351562 499.0 L 172.5 493.5 L 175.0 488.0 L 186.40000915527344 488.0 L 197.6999969482422 488.0 L 199.60000610351562 493.3000183105469 L 201.5 498.5 L 210.3000030517578 498.8000183105469 C 215.10000610351562 498.8999938964844 219.0 498.70001220703125 219.0 498.3000183105469 C 219.0 497.8999938964844 213.6999969482422 483.3999938964844 207.3000030517578 466.3000183105469 L 195.5 435.0 L 186.40000915527344 435.0 L 177.3000030517578 435.0 L 173.6999969482422 444.3000183105469 C 171.6999969482422 449.3000183105469 166.1999969482422 463.6000061035156 161.5 475.8000183105469 C 156.8000030517578 488.1000061035156 153.0 498.3999938964844 153.0 498.6000061035156 C 153.0 498.8000183105469 156.8000030517578 499.0 161.60000610351562 499.0M 242.0 499.0 L 260.0 499.0 L 260.0 492.0 L 260.0 485.1000061035156 L 250.3000030517578 484.8000183105469 L 240.5 484.5 L 240.1999969482422 459.8000183105469 L 240.0 435.0 L 232.0 435.0 L 224.0 435.0 L 224.0 467.0 L 224.0 499.0 L 242.0 499.0M 283.0 499.0 L 301.0 499.0 L 301.0 492.0 L 301.0 485.0 L 291.0 485.0 L 281.0 485.0 L 281.0 479.5 L 281.0 474.0 L 290.5 474.0 L 300.1000061035156 474.0 L 299.8000183105469 466.8000183105469 L 299.5 459.5 L 293.3000183105469 459.8000183105469 C 289.8999938964844 460.0 285.70001220703125 459.8999938964844 284.0 459.5 C 281.20001220703125 458.8999938964844 281.0 458.6000061035156 281.0 453.8999938964844 L 281.0 449.0 L 291.0 449.0 L 301.0 449.0 L 301.0 442.0 L 301.0 435.0 L 283.0 435.0 L 265.0 435.0 L 265.0 467.0 L 265.0 499.0 L 283.0 499.0M 382.20001220703125 499.0 L 390.0 499.0 L 390.0 474.0 L 390.0 449.0 L 397.0 449.0 L 404.0 449.0 L 404.0 442.0 L 404.0 435.0 L 382.0 435.0 L 360.0 435.0 L 360.0 442.0 L 360.0 449.0 L 366.5 449.0 L 373.0 449.0 L 373.0 473.3000183105469 C 373.0 486.70001220703125 373.3000183105469 498.0 373.70001220703125 498.3000183105469 C 374.0 498.70001220703125 377.8999938964844 499.0 382.20001220703125 499.0M 461.6000061035156 463.0 C 461.8000183105469 463.0 462.0 456.8999938964844 462.0 449.5 C 462.0 438.20001220703125 461.8000183105469 436.0 460.5 436.0 C 459.3000183105469 436.0 459.0 437.70001220703125 459.0 445.5 C 459.0 450.70001220703125 458.70001220703125 455.0 458.3999938964844 455.0 C 458.1000061035156 455.0 453.3999938964844 450.3999938964844 448.0 444.8000183105469 L 438.1000061035156 434.5 L 438.0 448.3000183105469 C 438.0 459.8000183105469 438.20001220703125 462.0 439.5 462.0 C 440.70001220703125 462.0 441.0 460.3000183105469 441.0 452.5 C 441.0 447.3000183105469 441.3000183105469 443.0 441.70001220703125 443.0 C 442.0 443.0 446.6000061035156 447.5 451.70001220703125 453.0 C 456.8999938964844 458.5 461.3999938964844 463.0 461.6000061035156 463.0M 549.9000244140625 461.8999938964844 C 551.7999877929688 461.5 554.4000244140625 460.1000061035156 555.7000122070312 458.8000183105469 C 557.0 457.5 558.2999877929688 454.70001220703125 558.7000122070312 452.70001220703125 L 559.2999877929688 449.0 L 553.6000366210938 449.0 C 549.2999877929688 449.0 548.0 449.3000183105469 548.0 450.5 C 548.0 451.6000061035156 549.1000366210938 452.0 552.0 452.0 C 555.7000122070312 452.0 555.9000244140625 452.20001220703125 555.1000366210938 454.3000183105469 C 554.7000122070312 455.5 552.7000122070312 457.3000183105469 550.7000122070312 458.3000183105469 C 547.6000366210938 459.8999938964844 546.5 460.0 543.4000244140625 459.0 C 541.2999877929688 458.3000183105469 539.1000366210938 456.6000061035156 537.9000244140625 454.6000061035156 C 536.9000244140625 452.8999938964844 536.0 450.5 536.0 449.20001220703125 C 536.0 447.8999938964844 536.7000122070312 445.6000061035156 537.5 444.0 C 538.4000244140625 442.3999938964844 540.4000244140625 440.3000183105469 542.1000366210938 439.3999938964844 C 544.1000366210938 438.3999938964844 546.4000244140625 438.0 548.5 438.3999938964844 C 550.2999877929688 438.8000183105469 552.5 439.8999938964844 553.5 441.0 C 554.4000244140625 442.0 555.7999877929688 442.6000061035156 556.6000366210938 442.3000183105469 C 557.6000366210938 442.0 557.7000122070312 441.3000183105469 557.0 440.0 C 556.5 439.0 554.2000122070312 437.5 551.7999877929688 436.5 C 549.2000122070312 435.5 546.4000244140625 435.1000061035156 544.4000244140625 435.5 C 542.6000366210938 435.8000183105469 540.0 437.0 538.6000366210938 438.1000061035156 C 537.1000366210938 439.20001220703125 535.2999877929688 441.5 534.5 443.0 C 533.7000122070312 444.6000061035156 533.0 447.3000183105469 533.0 449.0 C 533.0 450.70001220703125 533.6000366210938 453.3000183105469 534.4000244140625 454.8000183105469 C 535.2000122070312 456.3000183105469 536.7000122070312 458.3000183105469 537.9000244140625 459.3999938964844 C 539.0 460.3999938964844 541.4000244140625 461.5 543.2000122070312 461.8999938964844 C 545.0 462.3000183105469 548.0 462.3000183105469 549.9000244140625 461.8999938964844M 603.7999877929688 463.0 C 603.9000244140625 463.0 604.0 456.8999938964844 604.0 449.5 C 604.0 438.20001220703125 603.7999877929688 436.0 602.5 436.0 C 601.2999877929688 436.0 601.0 437.8000183105469 601.0 445.8000183105469 L 600.9000244140625 455.5 L 591.0 445.1000061035156 L 581.0 434.70001220703125 L 581.0 448.3999938964844 C 581.0 459.8000183105469 581.2000122070312 462.0 582.5 462.0 C 583.7000122070312 462.0 584.0 460.20001220703125 584.1000366210938 452.3000183105469 L 584.1000366210938 442.5 L 593.7999877929688 452.70001220703125 C 599.1000366210938 458.3999938964844 603.6000366210938 463.0 603.7999877929688 463.0M 431.5 462.0 C 432.8000183105469 462.0 433.0 459.8999938964844 433.0 449.0 C 433.0 438.1000061035156 432.8000183105469 436.0 431.5 436.0 C 430.20001220703125 436.0 430.0 438.1000061035156 430.0 449.0 C 430.0 459.8999938964844 430.20001220703125 462.0 431.5 462.0M 472.5 462.0 C 473.70001220703125 462.0 474.0 460.1000061035156 474.0 450.5 L 474.0 439.0 L 477.0 439.0 C 479.0 439.0 480.0 438.5 480.0 437.5 C 480.0 436.3000183105469 478.3999938964844 436.0 471.8999938964844 436.0 C 465.8999938964844 436.0 463.8999938964844 436.3000183105469 464.20001220703125 437.3000183105469 C 464.5 437.8999938964844 466.1000061035156 438.6000061035156 467.8000183105469 438.8000183105469 L 471.0 439.1000061035156 L 471.0 450.6000061035156 C 471.0 460.1000061035156 471.3000183105469 462.0 472.5 462.0M 490.1000061035156 462.0 C 495.3000183105469 462.0 497.1000061035156 461.70001220703125 496.8000183105469 460.8000183105469 C 496.5 460.0 494.20001220703125 459.3999938964844 491.20001220703125 459.20001220703125 L 486.0 458.8999938964844 L 486.0 453.8999938964844 L 486.0 449.0 L 491.0 449.0 C 494.8000183105469 449.0 496.0 448.6000061035156 496.0 447.5 C 496.0 446.3999938964844 494.8000183105469 446.0 491.0 446.0 L 486.0 446.0 L 486.0 442.6000061035156 C 486.0 439.1000061035156 486.0 439.1000061035156 491.20001220703125 438.8000183105469 C 494.20001220703125 438.6000061035156 496.5 438.0 496.8000183105469 437.3000183105469 C 497.1000061035156 436.3000183105469 495.3000183105469 436.0 490.1000061035156 436.0 L 483.0 436.0 L 483.0 449.0 L 483.0 462.0 L 490.1000061035156 462.0M 506.0 462.0 C 509.8000183105469 462.0 511.0 461.6000061035156 511.0 460.5 C 511.0 459.5 509.8999938964844 459.0 507.5 459.0 L 504.0 459.0 L 504.0 447.5 C 504.0 437.8999938964844 503.70001220703125 436.0 502.5 436.0 C 501.20001220703125 436.0 501.0 438.1000061035156 501.0 449.0 L 501.0 462.0 L 506.0 462.0M 518.6000366210938 462.0 C 522.6000366210938 462.0 524.1000366210938 461.6000061035156 523.7999877929688 460.8000183105469 C 523.5 460.1000061035156 521.7000122070312 459.3999938964844 519.7000122070312 459.20001220703125 L 516.0 458.8999938964844 L 516.0 447.3999938964844 C 516.0 437.8999938964844 515.7000122070312 436.0 514.5 436.0 C 513.2000122070312 436.0 513.0 438.1000061035156 513.0 449.0 L 513.0 462.0 L 518.6000366210938 462.0M 527.5 462.0 C 528.7999877929688 462.0 529.0 459.8999938964844 529.0 449.0 C 529.0 438.1000061035156 528.7999877929688 436.0 527.5 436.0 C 526.2000122070312 436.0 526.0 438.1000061035156 526.0 449.0 C 526.0 459.8999938964844 526.2000122070312 462.0 527.5 462.0M 570.1000366210938 462.0 C 575.2999877929688 462.0 577.1000366210938 461.70001220703125 576.7999877929688 460.8000183105469 C 576.5 460.0 574.2000122070312 459.3999938964844 571.2000122070312 459.20001220703125 L 566.0 458.8999938964844 L 566.0 453.8999938964844 L 566.0 449.0 L 571.0 449.0 C 574.7999877929688 449.0 576.0 448.6000061035156 576.0 447.5 C 576.0 446.3999938964844 574.7999877929688 446.0 571.0 446.0 L 566.0 446.0 L 566.0 442.6000061035156 C 566.0 439.1000061035156 566.0 439.1000061035156 571.2000122070312 438.8000183105469 C 574.2000122070312 438.6000061035156 576.5 438.0 576.7999877929688 437.3000183105469 C 577.1000366210938 436.3000183105469 575.2999877929688 436.0 570.1000366210938 436.0 L 563.0 436.0 L 563.0 449.0 L 563.0 462.0 L 570.1000366210938 462.0M 614.5 462.0 C 615.7000122070312 462.0 616.0 460.1000061035156 616.0 450.5 L 616.0 439.0 L 619.5 439.0 C 621.9000244140625 439.0 623.0 438.5 623.0 437.5 C 623.0 436.3000183105469 621.4000244140625 436.0 615.0 436.0 C 608.6000366210938 436.0 607.0 436.3000183105469 607.0 437.5 C 607.0 438.5 608.0 439.0 610.0 439.0 L 613.0 439.0 L 613.0 450.5 C 613.0 460.1000061035156 613.2999877929688 462.0 614.5 462.0M 127.70000457763672 354.8000183105469 L 197.40000915527344 354.5 L 212.1999969482422 317.6000061035156 C 220.3000030517578 297.3000183105469 227.40000915527344 279.3999938964844 228.10000610351562 277.8000183105469 L 229.3000030517578 275.0 L 266.8000183105469 275.20001220703125 L 304.3000183105469 275.5 L 320.1000061035156 315.0 L 335.8999938964844 354.5 L 405.3999938964844 354.8000183105469 C 443.70001220703125 354.8999938964844 475.0 354.8000183105469 475.0 354.5 C 475.0 354.20001220703125 468.20001220703125 337.0 459.8999938964844 316.3000183105469 C 451.5 295.5 444.5 277.70001220703125 444.3000183105469 276.8000183105469 C 443.8000183105469 275.20001220703125 444.70001220703125 275.0 454.20001220703125 275.0 L 464.70001220703125 275.0 L 490.0 211.8000030517578 C 503.8999938964844 177.0 515.4000244140625 147.90000915527344 515.7000122070312 147.3000030517578 C 516.1000366210938 146.3000030517578 503.1000061035156 146.0 453.8999938964844 145.8000030517578 L 391.6000061035156 145.5 L 364.1000061035156 76.30000305175781 L 336.5 7.0 L 266.6000061035156 7.300000190734863 L 196.6999969482422 7.5 L 127.4000015258789 181.0 C 89.20000457763672 276.3000183105469 58.0 354.5 58.0 354.70001220703125 C 58.0 354.8999938964844 89.4000015258789 354.8999938964844 127.70000457763672 354.8000183105469"/>
    <path d="M 439.5 489.0 C 437.3000183105469 489.0 436.0 488.5 436.0 487.8000183105469 C 436.1000061035156 487.1000061035156 436.8999938964844 485.0 437.8000183105469 483.20001220703125 L 439.6000061035156 479.8999938964844 L 441.3000183105469 483.5 C 442.20001220703125 485.5 443.0 487.5 443.0 488.0 C 443.0 488.6000061035156 441.3999938964844 489.0 439.5 489.0" stroke-width="1.0" fill="rgb(254, 254, 254)" opacity="0.0"/>
    <path d="M 492.20001220703125 489.0 L 488.1000061035156 489.0 L 489.6000061035156 485.3000183105469 C 490.5 483.20001220703125 491.5 481.1000061035156 492.0 480.70001220703125 C 492.3999938964844 480.20001220703125 493.20001220703125 481.1000061035156 493.8000183105469 482.70001220703125 C 494.3000183105469 484.20001220703125 495.1000061035156 486.3000183105469 495.5 487.3000183105469 C 496.1000061035156 488.70001220703125 495.6000061035156 489.0 492.20001220703125 489.0" stroke-width="1.0" fill="rgb(254, 254, 254)" opacity="0.0"/>
    <path d="M 47.60000228881836 475.0 C 41.20000076293945 475.0 41.0 474.8999938964844 41.5 472.8000183105469 C 41.79999923706055 471.5 43.29999923706055 467.0 44.900001525878906 462.70001220703125 L 47.60000228881836 454.8999938964844 L 50.60000228881836 463.70001220703125 C 52.20000076293945 468.5 53.60000228881836 473.1000061035156 53.79999923706055 473.8000183105469 C 54.10000228881836 474.70001220703125 52.29999923706055 475.0 47.60000228881836 475.0" stroke-width="1.0" fill="rgb(254, 254, 254)" opacity="0.0"/>
    <path d="M 186.60000610351562 475.0 C 183.0 475.0 180.0 474.70001220703125 180.0 474.3000183105469 C 180.0 473.8000183105469 181.40000915527344 469.20001220703125 183.1999969482422 464.0 L 186.3000030517578 454.5 L 189.10000610351562 462.8000183105469 C 190.6999969482422 467.3999938964844 192.1999969482422 472.0 192.5 473.1000061035156 C 193.10000610351562 474.8000183105469 192.60000610351562 475.0 186.60000610351562 475.0" stroke-width="1.0" fill="rgb(254, 254, 254)" opacity="0.0"/>
    <path d="M 127.70000457763672 354.8000183105469 C 89.4000015258789 354.8999938964844 58.0 354.8999938964844 58.0 354.70001220703125 C 58.0 354.6000061035156 65.0999984741211 336.70001220703125 73.80000305175781 315.0 L 89.5999984741211 275.5 L 159.3000030517578 275.20001220703125 C 197.60000610351562 275.1000061035156 229.0 275.1000061035156 229.0 275.20001220703125 C 229.0 275.3999938964844 221.90000915527344 293.3000183105469 213.1999969482422 315.0 L 197.40000915527344 354.5 L 127.70000457763672 354.8000183105469" stroke-width="1.0" fill="rgb(254, 221, 0)" opacity="1.0"/>
    <path d="M 197.0 146.0 C 166.8000030517578 146.0 142.0 145.6999969482422 142.0 145.3000030517578 C 142.0 144.8000030517578 154.3000030517578 113.80000305175781 169.1999969482422 76.30000305175781 C 184.1999969482422 38.70000076293945 196.6999969482422 8.0 197.0 8.0 C 197.3000030517578 8.0 209.8000030517578 38.70000076293945 224.8000030517578 76.30000305175781 C 239.6999969482422 113.80000305175781 252.0 144.8000030517578 252.0 145.3000030517578 C 252.0 145.6999969482422 227.3000030517578 146.0 197.0 146.0" stroke-width="1.0" fill="rgb(254, 221, 0)" opacity="1.0"/>
    <path d="M 405.5 355.0 L 336.0 355.0 L 334.8999938964844 352.3000183105469 C 334.3000183105469 350.70001220703125 327.3999938964844 333.20001220703125 319.3999938964844 313.3999938964844 C 311.5 293.5 305.0 276.70001220703125 305.0 276.1000061035156 C 305.0 275.3000183105469 323.1000061035156 275.1000061035156 374.3000183105469 275.20001220703125 L 443.5 275.5 L 459.20001220703125 314.5 C 467.8000183105469 336.0 474.8999938964844 353.8000183105469 475.0 354.3000183105469 C 475.0 354.70001220703125 443.70001220703125 355.0 405.5 355.0" stroke-width="1.0" fill="rgb(0, 173, 239)" opacity="1.0"/>
    <path d="M 336.3000183105469 146.0 C 283.8000183105469 146.0 280.8000183105469 145.90000915527344 281.3999938964844 144.3000030517578 C 281.8000183105469 143.3000030517578 294.3000183105469 112.0 309.20001220703125 74.70000457763672 L 336.3000183105469 6.800000190734863 L 361.20001220703125 69.20000457763672 C 374.8999938964844 103.5 387.3999938964844 134.8000030517578 388.8999938964844 138.8000030517578 L 391.8000183105469 146.0 L 336.3000183105469 146.0" stroke-width="1.0" fill="rgb(0, 173, 239)" opacity="1.0"/>
    <path d="M 266.6000061035156 146.0 L 252.5 146.0 L 224.90000915527344 76.70000457763672 L 197.1999969482422 7.5 L 266.3000183105469 7.200000286102295 C 304.20001220703125 7.099999904632568 335.5 7.099999904632568 335.6000061035156 7.300000190734863 C 335.8000183105469 7.5 323.5 38.79999923706055 308.3000183105469 76.80000305175781 L 280.70001220703125 146.0 L 266.6000061035156 146.0" stroke-width="1.0" fill="rgb(1, 151, 0)" opacity="1.0"/>
    <path d="M 266.5 275.0 L 229.0 275.0 L 230.0 272.8000183105469 C 230.40000915527344 271.5 238.90000915527344 250.40000915527344 248.6999969482422 225.90000915527344 L 266.6000061035156 181.1999969482422 L 284.0 224.90000915527344 C 293.6000061035156 248.90000915527344 302.0 270.0 302.70001220703125 271.8000183105469 L 304.0 275.0 L 266.5 275.0" stroke-width="1.0" fill="rgb(237, 0, 139)" opacity="1.0"/>
    <path d="M 454.1000061035156 275.0 L 443.3999938964844 275.0 L 417.8000183105469 210.8000030517578 L 392.1000061035156 146.5 L 453.70001220703125 146.1999969482422 C 487.6000061035156 146.10000610351562 515.5 146.10000610351562 515.6000366210938 146.3000030517578 C 515.7999877929688 146.5 504.3999938964844 175.5 490.3000183105469 210.8000030517578 L 464.70001220703125 275.0 L 454.1000061035156 275.0" stroke-width="1.0" fill="rgb(237, 0, 139)" opacity="1.0"/>
    <path d="M 159.60000610351562 274.8000183105469 L 90.0 275.0 L 91.30000305175781 271.8000183105469 C 92.0 270.0 103.5999984741211 240.90000915527344 117.0999984741211 207.3000030517578 L 141.5 146.0 L 197.10000610351562 146.0 L 252.60000610351562 146.0 L 259.3999938964844 163.10000610351562 C 264.3999938964844 175.40000915527344 266.1000061035156 180.8000030517578 265.6000061035156 182.8000030517578 C 265.3000183105469 184.3000030517578 257.0 205.5 247.1999969482422 230.0 L 229.3000030517578 274.5 L 159.60000610351562 274.8000183105469" stroke-width="1.0" fill="rgb(235, 0, 0)" opacity="1.0"/>
    <path d="M 373.70001220703125 275.0 L 304.20001220703125 275.0 L 285.5 228.10000610351562 L 266.70001220703125 181.10000610351562 L 273.6000061035156 163.8000030517578 L 280.5 146.5 L 336.1000061035156 146.1999969482422 L 391.70001220703125 146.0 L 417.0 209.1999969482422 C 430.8999938964844 244.0 442.3999938964844 273.0 442.70001220703125 273.70001220703125 C 443.1000061035156 274.8000183105469 430.3999938964844 275.0 373.70001220703125 275.0" stroke-width="1.0" fill="rgb(0, 0, 129)" opacity="1.0"/>
    <path d="M 266.8000183105469 180.60000610351562 C 266.6000061035156 180.6999969482422 263.70001220703125 173.8000030517578 260.3000183105469 165.1999969482422 C 256.8999938964844 156.60000610351562 253.8000030517578 148.6999969482422 253.40000915527344 147.8000030517578 C 252.8000030517578 146.10000610351562 253.90000915527344 146.0 266.70001220703125 146.0 L 280.70001220703125 146.0 L 273.8999938964844 163.1999969482422 C 270.1000061035156 172.60000610351562 266.8999938964844 180.40000915527344 266.8000183105469 180.60000610351562" stroke-width="1.0" fill="rgb(0, 0, 0)" opacity="1.0"/>
  </g>
</svg>
