<?xml version="1.0" ?>
<svg xmlns="http://www.w3.org/2000/svg" version="1.1" width="1515" height="512">
  <defs/>
  <g>
    <path stroke-width="1.0" fill="rgb(254, 254, 254)" opacity="0.0" d="M 757.5 512.0 L 0.0 512.0 L 0.0 256.0 L 0.0 0.0 L 757.5 0.0 L 1515.0 0.0 L 1515.0 256.0 L 1515.0 512.0 L 757.5 512.0M 116.80000305175781 496.0 L 212.60000610351562 496.0 L 234.60000610351562 441.0 L 256.5 386.0 L 308.6000061035156 386.0 L 360.8000183105469 386.0 L 382.6000061035156 440.6000061035156 C 394.6000061035156 470.6000061035156 404.8999938964844 495.3999938964844 405.3999938964844 495.6000061035156 C 406.0 495.8000183105469 449.3000183105469 495.8999938964844 501.70001220703125 495.8000183105469 L 596.9000244140625 495.5 L 575.1000366210938 441.0 L 553.2999877929688 386.5 L 567.6000366210938 386.20001220703125 L 581.7999877929688 385.8999938964844 L 616.9000244140625 298.20001220703125 C 636.1000366210938 250.0 652.2000122070312 209.6999969482422 652.6000366210938 208.8000030517578 C 653.2000122070312 207.10000610351562 648.7000122070312 207.0 567.2999877929688 207.0 L 481.5 207.0 L 443.1000061035156 111.0 L 404.8000183105469 15.0 L 308.8999938964844 15.0 C 218.6999969482422 15.0 213.0 15.100000381469727 212.10000610351562 16.80000114440918 C 211.60000610351562 17.700000762939453 177.90000915527344 101.80000305175781 137.1999969482422 203.5 C 96.5 305.3000183105469 53.70000076293945 412.3000183105469 42.10000228881836 441.3000183105469 C 30.5 470.3999938964844 21.0 494.6000061035156 21.0 495.1000061035156 C 21.0 495.6000061035156 58.400001525878906 496.0 116.80000305175781 496.0M 1280.7000732421875 367.0 C 1280.9000244140625 367.0 1281.0 358.5 1281.0 348.0 C 1281.0 329.70001220703125 1280.9000244140625 329.0 1279.0 329.0 C 1277.0999755859375 329.0 1277.0 329.70001220703125 1277.0 342.5 C 1277.0 349.8999938964844 1276.7000732421875 356.0 1276.300048828125 356.0 C 1275.800048828125 356.0 1269.5 349.70001220703125 1262.300048828125 342.0 L 1249.0 328.0 L 1249.0 346.5 C 1249.0 364.3000183105469 1249.0999755859375 365.0 1251.0 365.0 C 1252.9000244140625 365.0 1253.0 364.3000183105469 1253.0999755859375 351.8000183105469 L 1253.0999755859375 338.5 L 1266.800048828125 352.8000183105469 C 1274.300048828125 360.6000061035156 1280.5 367.0 1280.7000732421875 367.0M 1093.5 365.6000061035156 C 1099.5999755859375 365.3999938964844 1106.2000732421875 364.6000061035156 1108.300048828125 363.8999938964844 L 1112.0 362.70001220703125 L 1112.0 349.3000183105469 L 1112.0 336.0 L 1106.5 339.6000061035156 C 1101.9000244140625 342.70001220703125 1099.9000244140625 343.3000183105469 1094.0 343.8000183105469 C 1087.9000244140625 344.20001220703125 1086.4000244140625 343.8999938964844 1081.7000732421875 341.6000061035156 C 1078.300048828125 340.0 1075.300048828125 337.5 1073.5999755859375 335.20001220703125 C 1072.0999755859375 333.0 1070.5 329.8000183105469 1070.0 327.8999938964844 C 1069.4000244140625 326.0 1069.0 322.3000183105469 1069.0 319.5 C 1069.0 316.6000061035156 1069.9000244140625 312.6000061035156 1071.0999755859375 310.0 C 1072.2000732421875 307.5 1074.0999755859375 304.3999938964844 1075.300048828125 303.20001220703125 C 1076.5 301.8999938964844 1079.0999755859375 300.0 1081.2000732421875 298.8999938964844 C 1083.2000732421875 297.8999938964844 1086.5999755859375 296.8000183105469 1088.800048828125 296.3999938964844 C 1091.0 296.1000061035156 1095.2000732421875 296.3000183105469 1098.0 297.0 C 1100.800048828125 297.70001220703125 1105.0999755859375 299.8000183105469 1107.5999755859375 301.6000061035156 L 1112.0 305.0 L 1112.0 291.6000061035156 L 1112.0 278.20001220703125 L 1107.300048828125 276.5 C 1104.5999755859375 275.6000061035156 1099.0999755859375 274.6000061035156 1094.9000244140625 274.3000183105469 C 1090.300048828125 274.0 1085.2000732421875 274.20001220703125 1081.9000244140625 275.0 C 1078.9000244140625 275.70001220703125 1073.7000732421875 277.6000061035156 1070.2000732421875 279.3000183105469 C 1066.7000732421875 281.0 1061.7000732421875 284.6000061035156 1058.5999755859375 287.70001220703125 C 1055.7000732421875 290.6000061035156 1052.0999755859375 295.20001220703125 1050.7000732421875 297.8999938964844 C 1049.2000732421875 300.5 1047.4000244140625 305.3000183105469 1046.5 308.5 C 1045.7000732421875 311.8000183105469 1045.0 317.20001220703125 1045.0 320.5 C 1045.0 323.8000183105469 1045.7000732421875 329.20001220703125 1046.5 332.5 C 1047.4000244140625 335.70001220703125 1049.300048828125 340.6000061035156 1050.7000732421875 343.3000183105469 C 1052.2000732421875 346.0 1055.9000244140625 350.3999938964844 1058.800048828125 353.1000061035156 C 1061.800048828125 355.8999938964844 1066.5999755859375 359.3000183105469 1069.4000244140625 360.70001220703125 C 1072.2000732421875 362.20001220703125 1076.300048828125 363.8999938964844 1078.5 364.70001220703125 C 1081.2000732421875 365.6000061035156 1086.0 365.8999938964844 1093.5 365.6000061035156M 1370.4000244140625 366.0 C 1372.5 366.0 1375.5 365.3000183105469 1377.0999755859375 364.3999938964844 C 1378.9000244140625 363.5 1380.800048828125 361.3000183105469 1381.5999755859375 359.3000183105469 C 1382.5 357.3000183105469 1382.9000244140625 354.6000061035156 1382.5 353.0 C 1382.2000732421875 351.5 1380.9000244140625 349.3000183105469 1379.7000732421875 348.20001220703125 C 1378.5 347.0 1375.7000732421875 345.3999938964844 1373.5 344.3999938964844 C 1371.300048828125 343.5 1368.7000732421875 342.1000061035156 1367.800048828125 341.20001220703125 C 1366.800048828125 340.3999938964844 1366.0 339.0 1366.0 338.20001220703125 C 1366.0 337.3000183105469 1366.7000732421875 335.8000183105469 1367.7000732421875 334.8000183105469 C 1368.5999755859375 333.8000183105469 1370.5999755859375 333.0 1372.0999755859375 333.0 C 1373.5999755859375 333.0 1375.5999755859375 333.70001220703125 1376.5 334.6000061035156 C 1377.300048828125 335.5 1378.7000732421875 335.8999938964844 1379.5 335.6000061035156 C 1380.300048828125 335.3000183105469 1381.0 334.6000061035156 1381.0 334.1000061035156 C 1381.0 333.6000061035156 1379.800048828125 332.20001220703125 1378.4000244140625 331.1000061035156 C 1376.9000244140625 329.8999938964844 1374.300048828125 329.0 1372.300048828125 329.0 C 1370.4000244140625 329.0 1367.9000244140625 329.5 1366.7000732421875 330.20001220703125 C 1365.5 330.8000183105469 1364.0 332.0 1363.300048828125 332.8999938964844 C 1362.5999755859375 333.8000183105469 1362.0 335.8999938964844 1362.0 337.6000061035156 C 1362.0 339.3000183105469 1362.9000244140625 341.8999938964844 1364.0 343.20001220703125 C 1365.0999755859375 344.6000061035156 1367.9000244140625 346.5 1370.2000732421875 347.5 C 1372.5999755859375 348.3999938964844 1375.300048828125 349.8999938964844 1376.300048828125 350.70001220703125 C 1377.2000732421875 351.6000061035156 1378.0 353.70001220703125 1378.0 355.6000061035156 C 1378.0 357.8999938964844 1377.300048828125 359.3999938964844 1375.800048828125 360.3999938964844 C 1374.5999755859375 361.3000183105469 1372.300048828125 362.0 1370.800048828125 362.0 C 1369.0 362.0 1367.4000244140625 361.0 1365.7000732421875 358.8999938964844 C 1364.0 356.8000183105469 1362.7000732421875 355.8999938964844 1361.5999755859375 356.3000183105469 C 1360.7000732421875 356.70001220703125 1360.0 357.3999938964844 1360.0 358.1000061035156 C 1360.0 358.70001220703125 1361.5 360.70001220703125 1363.4000244140625 362.6000061035156 C 1366.0 365.20001220703125 1367.5999755859375 366.0 1370.4000244140625 366.0M 1409.4000244140625 365.8999938964844 C 1412.4000244140625 366.0 1413.9000244140625 365.3000183105469 1416.5999755859375 362.6000061035156 C 1419.300048828125 359.8999938964844 1420.0 358.3999938964844 1420.0 355.3000183105469 C 1420.0 352.70001220703125 1419.300048828125 350.6000061035156 1418.0 349.20001220703125 C 1416.800048828125 348.0 1413.300048828125 345.70001220703125 1410.0999755859375 344.0 C 1406.9000244140625 342.3999938964844 1404.0 340.3000183105469 1403.5999755859375 339.3999938964844 C 1403.2000732421875 338.5 1403.7000732421875 336.70001220703125 1404.5 335.3999938964844 C 1405.5999755859375 333.70001220703125 1407.0 333.0 1409.2000732421875 333.0 C 1410.9000244140625 333.0 1413.0999755859375 333.70001220703125 1414.0999755859375 334.6000061035156 C 1415.0999755859375 335.5 1416.4000244140625 335.8999938964844 1416.9000244140625 335.5 C 1417.5 335.20001220703125 1418.0 334.3000183105469 1418.0 333.6000061035156 C 1418.0 332.8000183105469 1416.9000244140625 331.5 1415.5 330.6000061035156 C 1414.2000732421875 329.70001220703125 1411.2000732421875 329.0 1409.0 329.0 C 1405.7000732421875 329.0 1404.2000732421875 329.6000061035156 1401.9000244140625 331.8999938964844 C 1399.9000244140625 333.8999938964844 1399.0 335.8999938964844 1399.0 338.0 C 1399.0 340.0 1399.9000244140625 342.0 1401.5 343.6000061035156 C 1402.800048828125 344.8999938964844 1405.9000244140625 346.8999938964844 1408.2000732421875 347.8999938964844 C 1410.5999755859375 348.8999938964844 1413.4000244140625 350.70001220703125 1414.4000244140625 351.8999938964844 C 1416.0 353.6000061035156 1416.2000732421875 354.6000061035156 1415.4000244140625 356.70001220703125 C 1414.9000244140625 358.20001220703125 1413.300048828125 360.1000061035156 1411.800048828125 360.8999938964844 C 1409.800048828125 362.1000061035156 1408.4000244140625 362.20001220703125 1406.300048828125 361.5 C 1404.800048828125 360.8999938964844 1403.0999755859375 359.5 1402.5 358.20001220703125 C 1402.0 357.0 1400.800048828125 356.0 1399.800048828125 356.0 C 1398.9000244140625 356.0 1397.9000244140625 356.3999938964844 1397.5999755859375 356.8000183105469 C 1397.300048828125 357.3000183105469 1398.0 359.1000061035156 1399.0999755859375 360.8999938964844 C 1400.0999755859375 362.6000061035156 1402.0 364.5 1403.300048828125 365.0 C 1404.5 365.5 1407.2000732421875 365.8999938964844 1409.4000244140625 365.8999938964844M 1214.4000244140625 365.0 C 1216.300048828125 365.0 1217.0999755859375 364.0 1218.800048828125 360.0 L 1220.9000244140625 354.8999938964844 L 1228.5999755859375 355.20001220703125 L 1236.2000732421875 355.5 L 1237.9000244140625 360.0 C 1239.0999755859375 363.20001220703125 1240.2000732421875 364.6000061035156 1241.800048828125 364.8000183105469 C 1243.0 365.0 1244.0 364.70001220703125 1244.0 364.20001220703125 C 1244.0 363.70001220703125 1240.9000244140625 356.0 1237.0999755859375 347.20001220703125 C 1233.300048828125 338.3999938964844 1229.800048828125 330.3999938964844 1229.300048828125 329.5 C 1228.5999755859375 328.3000183105469 1226.800048828125 331.5 1221.7000732421875 342.70001220703125 C 1218.0999755859375 350.8000183105469 1214.4000244140625 359.20001220703125 1213.5 361.3000183105469 C 1212.0 365.0 1212.0 365.0 1214.4000244140625 365.0M 1287.300048828125 365.0 C 1289.0 365.0 1290.0 363.8000183105469 1291.7000732421875 360.0 L 1293.9000244140625 355.0 L 1300.800048828125 355.0 C 1305.2000732421875 355.0 1308.0999755859375 355.5 1308.800048828125 356.3000183105469 C 1309.300048828125 356.8999938964844 1310.300048828125 359.20001220703125 1311.0999755859375 361.3000183105469 C 1312.0999755859375 364.1000061035156 1312.9000244140625 365.0 1314.7000732421875 365.0 C 1316.0 365.0 1317.0 364.70001220703125 1317.0 364.3999938964844 C 1317.0 364.1000061035156 1313.5 355.8000183105469 1309.300048828125 345.8999938964844 C 1305.0999755859375 336.1000061035156 1301.300048828125 328.3000183105469 1300.9000244140625 328.8000183105469 C 1300.5 329.20001220703125 1296.800048828125 337.3000183105469 1292.5999755859375 346.8000183105469 C 1288.4000244140625 356.3000183105469 1285.0 364.3000183105469 1285.0 364.5 C 1285.0 364.8000183105469 1286.0 365.0 1287.300048828125 365.0M 1328.0 365.0 C 1333.4000244140625 365.0 1335.0 364.70001220703125 1335.0 363.6000061035156 C 1335.0 362.5 1333.5999755859375 362.0 1330.300048828125 361.8000183105469 L 1325.5 361.5 L 1325.2000732421875 345.20001220703125 C 1325.0 330.3999938964844 1324.800048828125 328.8999938964844 1323.2000732421875 329.20001220703125 C 1321.7000732421875 329.5 1321.5 331.3999938964844 1321.2000732421875 347.3000183105469 L 1321.0 365.0 L 1328.0 365.0M 1345.5 365.0 C 1347.9000244140625 365.0 1348.0 364.8000183105469 1348.0 357.3999938964844 C 1348.0 350.1000061035156 1348.2000732421875 349.6000061035156 1353.5 340.3999938964844 C 1356.5 335.1000061035156 1359.0 330.3999938964844 1359.0 329.8999938964844 C 1359.0 329.3999938964844 1358.0999755859375 329.0 1357.0 329.0 C 1355.5999755859375 329.0 1353.800048828125 331.1000061035156 1350.800048828125 336.5 C 1348.4000244140625 340.6000061035156 1346.2000732421875 344.0 1345.800048828125 344.0 C 1345.4000244140625 344.0 1343.2000732421875 340.6000061035156 1340.9000244140625 336.5 C 1337.5 330.6000061035156 1336.0999755859375 329.0 1334.300048828125 329.0 C 1333.0 329.0 1332.0 329.20001220703125 1332.0 329.3999938964844 C 1332.0 329.5 1334.5 334.0 1337.5 339.3000183105469 C 1342.9000244140625 348.70001220703125 1343.0 349.0 1343.0 356.8999938964844 C 1343.0 364.8999938964844 1343.0 365.0 1345.5 365.0M 1390.0 365.0 C 1391.9000244140625 365.0 1392.0 364.3000183105469 1392.0 347.0 C 1392.0 329.70001220703125 1391.9000244140625 329.0 1390.0 329.0 C 1388.0999755859375 329.0 1388.0 329.70001220703125 1388.0 347.0 C 1388.0 364.3000183105469 1388.0999755859375 365.0 1390.0 365.0M 653.2999877929688 364.0 L 665.6000366210938 364.0 L 668.5 356.5 L 671.2999877929688 349.0 L 687.0 349.0 L 702.7000122070312 349.0 L 705.5 356.5 L 708.2000122070312 364.0 L 720.6000366210938 364.0 L 733.0 364.0 L 730.4000244140625 357.3000183105469 C 729.0 353.5 726.2999877929688 346.5 724.5 341.5 C 722.7000122070312 336.6000061035156 716.4000244140625 319.8999938964844 710.6000366210938 304.6000061035156 C 704.7999877929688 289.20001220703125 700.0 276.5 700.0 276.3000183105469 C 700.0 276.1000061035156 694.2999877929688 276.1000061035156 687.4000244140625 276.20001220703125 L 674.7000122070312 276.5 L 664.2999877929688 303.5 C 658.6000366210938 318.3999938964844 651.5 336.8000183105469 648.5 344.5 C 645.6000366210938 352.20001220703125 642.7000122070312 359.70001220703125 642.1000366210938 361.3000183105469 L 641.0 364.0 L 653.2999877929688 364.0M 750.5 364.0 L 762.0 364.0 L 762.0 338.0 C 762.0 323.70001220703125 762.2999877929688 312.0 762.7999877929688 312.1000061035156 C 763.2000122070312 312.1000061035156 772.5 323.8000183105469 783.5 338.1000061035156 L 803.5 364.0 L 815.2999877929688 364.0 L 827.0 364.0 L 826.7999877929688 320.3000183105469 L 826.5 276.5 L 815.2999877929688 276.20001220703125 L 804.0 275.8999938964844 L 804.0 302.5 C 804.0 317.1000061035156 803.7000122070312 329.0 803.2999877929688 329.0 C 802.7999877929688 329.0 801.6000366210938 327.70001220703125 800.6000366210938 326.20001220703125 C 799.5 324.70001220703125 790.2999877929688 312.8000183105469 780.2000122070312 299.8000183105469 L 761.7000122070312 276.0 L 750.4000244140625 276.0 L 739.0 276.0 L 739.0 320.0 L 739.0 364.0 L 750.5 364.0M 845.1000366210938 363.8000183105469 L 857.2000122070312 363.5 L 860.0 356.5 L 862.7999877929688 349.5 L 878.6000366210938 349.5 L 894.4000244140625 349.5 L 897.1000366210938 356.5 L 899.7000122070312 363.5 L 911.9000244140625 363.8000183105469 C 918.5 363.8999938964844 924.0 363.8000183105469 924.0 363.3999938964844 C 924.0 363.0 917.0 344.0 908.4000244140625 321.1000061035156 C 899.7999877929688 298.20001220703125 892.2999877929688 278.70001220703125 891.7999877929688 277.8000183105469 C 891.0 276.20001220703125 889.2999877929688 276.0 878.9000244140625 276.0 L 866.9000244140625 276.0 L 865.0 280.3000183105469 C 864.0 282.6000061035156 856.4000244140625 302.20001220703125 848.1000366210938 323.70001220703125 C 839.7999877929688 345.3000183105469 833.0 363.20001220703125 833.0 363.5 C 833.0 363.8000183105469 838.5 363.8999938964844 845.1000366210938 363.8000183105469M 955.5 364.0 L 981.0 364.0 L 981.0 354.5 L 981.0 345.1000061035156 L 967.2999877929688 344.8000183105469 L 953.5 344.5 L 953.2000122070312 310.20001220703125 L 953.0 275.8999938964844 L 941.7000122070312 276.20001220703125 L 930.5 276.5 L 930.2000122070312 320.3000183105469 L 930.0 364.0 L 955.5 364.0M 1012.0 364.0 L 1037.0 364.0 L 1037.0 354.5 L 1037.0 345.0 L 1023.5 345.0 L 1010.0 345.0 L 1010.0 337.5 L 1010.0 330.1000061035156 L 1022.7999877929688 329.8000183105469 L 1035.5 329.5 L 1035.800048828125 319.8000183105469 L 1036.0999755859375 310.0 L 1023.0 310.0 L 1010.0 310.0 L 1010.0 303.0 L 1010.0 296.1000061035156 L 1023.2999877929688 295.8000183105469 L 1036.5 295.5 L 1036.5 286.0 L 1036.5 276.5 L 1011.7999877929688 276.20001220703125 L 987.0 276.0 L 987.0 320.0 L 987.0 364.0 L 1012.0 364.0M 1148.5 364.0 L 1160.0 364.0 L 1160.0 330.0 L 1160.0 296.0 L 1169.5 296.0 L 1179.0 296.0 L 1179.0 286.0 L 1179.0 276.0 L 1148.800048828125 276.20001220703125 L 1118.5 276.5 L 1118.5 286.0 L 1118.5 295.5 L 1127.800048828125 295.8000183105469 L 1137.0 296.1000061035156 L 1137.0 330.0 L 1137.0 364.0 L 1148.5 364.0M 1258.800048828125 296.8000183105469 C 1258.9000244140625 286.5 1258.5999755859375 278.20001220703125 1258.0999755859375 277.70001220703125 C 1257.5999755859375 277.20001220703125 1256.7000732421875 277.1000061035156 1256.0999755859375 277.3999938964844 C 1255.4000244140625 277.8999938964844 1255.0 282.8000183105469 1255.0 291.1000061035156 C 1255.0 298.3000183105469 1254.5999755859375 304.0 1254.2000732421875 303.8000183105469 C 1253.7000732421875 303.70001220703125 1247.4000244140625 297.3000183105469 1240.2000732421875 289.8000183105469 L 1227.0 276.1000061035156 L 1227.0 295.1000061035156 C 1227.0 313.3000183105469 1227.0999755859375 314.0 1229.0 314.0 C 1230.9000244140625 314.0 1231.0 313.3000183105469 1231.0999755859375 300.3000183105469 L 1231.0999755859375 286.5 L 1244.800048828125 300.70001220703125 L 1258.5 314.8999938964844 L 1258.800048828125 296.8000183105469M 1455.800048828125 297.5 C 1455.9000244140625 287.6000061035156 1455.800048828125 279.0 1455.5999755859375 278.3000183105469 C 1455.300048828125 277.6000061035156 1454.4000244140625 277.0 1453.5 277.0 C 1452.2000732421875 277.0 1452.0 279.0 1452.0 290.5 C 1452.0 297.8999938964844 1451.7000732421875 304.0 1451.300048828125 304.0 C 1450.800048828125 304.0 1444.300048828125 297.6000061035156 1436.800048828125 289.8000183105469 L 1423.0999755859375 275.5 L 1423.300048828125 294.5 C 1423.5 312.8000183105469 1423.5999755859375 313.5 1425.5 313.5 C 1427.4000244140625 313.5 1427.5 312.70001220703125 1428.0 300.20001220703125 L 1428.5 286.8999938964844 L 1442.0 301.1000061035156 L 1455.5 315.3999938964844 L 1455.800048828125 297.5M 1217.7000732421875 313.8000183105469 C 1219.300048828125 313.5 1219.5 311.8000183105469 1219.5 295.5 C 1219.5 278.20001220703125 1219.4000244140625 277.5 1217.5 277.5 C 1215.5999755859375 277.5 1215.5 278.3000183105469 1215.2000732421875 294.5 C 1215.0999755859375 303.8000183105469 1215.2000732421875 312.0 1215.5 312.8000183105469 C 1215.800048828125 313.5 1216.800048828125 314.0 1217.7000732421875 313.8000183105469M 1273.800048828125 313.8000183105469 C 1275.300048828125 313.5 1275.5 311.8000183105469 1275.800048828125 297.8000183105469 L 1276.0999755859375 282.1000061035156 L 1280.300048828125 281.8000183105469 C 1283.7000732421875 281.6000061035156 1284.5 281.1000061035156 1284.5 279.5 C 1284.5 277.6000061035156 1283.7000732421875 277.5 1273.7000732421875 277.20001220703125 C 1262.9000244140625 276.8999938964844 1262.9000244140625 276.8999938964844 1263.2000732421875 279.20001220703125 C 1263.4000244140625 281.1000061035156 1264.2000732421875 281.6000061035156 1267.800048828125 281.8000183105469 L 1272.0 282.1000061035156 L 1272.0 298.1000061035156 C 1272.0 312.8000183105469 1272.0999755859375 314.1000061035156 1273.800048828125 313.8000183105469M 1297.7000732421875 313.8000183105469 C 1305.0 313.5 1306.5 313.20001220703125 1306.800048828125 311.8000183105469 C 1307.0999755859375 310.3000183105469 1306.0999755859375 310.0 1299.800048828125 309.8000183105469 L 1292.5 309.5 L 1292.4000244140625 304.0 C 1292.300048828125 301.0 1292.5 297.8999938964844 1292.7000732421875 297.3000183105469 C 1293.0999755859375 296.3999938964844 1295.5 296.0 1300.0999755859375 296.0 C 1306.300048828125 296.0 1307.0 295.8000183105469 1307.0 294.0 C 1307.0 292.20001220703125 1306.300048828125 292.0 1300.0999755859375 292.0 C 1294.7000732421875 292.0 1293.0999755859375 291.6000061035156 1292.5999755859375 290.3999938964844 C 1292.300048828125 289.5 1292.0 287.3000183105469 1292.0 285.5 L 1292.0 282.1000061035156 L 1299.300048828125 281.8000183105469 C 1305.7000732421875 281.5 1306.5 281.3000183105469 1306.5 279.5 C 1306.5 277.6000061035156 1305.800048828125 277.5 1297.5 277.5 L 1288.5 277.5 L 1288.2000732421875 294.5 C 1288.0999755859375 303.8000183105469 1288.2000732421875 312.0 1288.5 312.8000183105469 C 1288.800048828125 313.70001220703125 1291.2000732421875 314.0 1297.7000732421875 313.8000183105469M 1320.4000244140625 313.8000183105469 C 1325.300048828125 313.6000061035156 1326.5 313.1000061035156 1326.800048828125 311.8000183105469 C 1327.0999755859375 310.3000183105469 1326.4000244140625 310.0 1322.0999755859375 310.0 L 1317.0 310.0 L 1316.800048828125 293.8000183105469 C 1316.5 279.20001220703125 1316.300048828125 277.5 1314.800048828125 277.20001220703125 C 1313.0999755859375 276.8999938964844 1313.0 278.20001220703125 1313.0 294.8000183105469 C 1313.0 304.6000061035156 1313.300048828125 313.0 1313.7000732421875 313.3999938964844 C 1314.0999755859375 313.8000183105469 1317.0999755859375 314.0 1320.4000244140625 313.8000183105469M 1337.7000732421875 313.8000183105469 C 1343.2000732421875 313.6000061035156 1344.5 313.20001220703125 1344.800048828125 311.8000183105469 C 1345.0999755859375 310.3000183105469 1344.4000244140625 310.0 1340.0999755859375 310.0 L 1335.0 310.0 L 1334.800048828125 293.8000183105469 C 1334.5 278.3000183105469 1334.4000244140625 277.5 1332.5 277.5 C 1330.5999755859375 277.5 1330.5 278.3000183105469 1330.2000732421875 294.5 C 1330.0999755859375 303.8000183105469 1330.2000732421875 312.0 1330.5 312.8000183105469 C 1330.800048828125 313.70001220703125 1332.800048828125 314.0 1337.7000732421875 313.8000183105469M 1350.5 314.0 C 1351.800048828125 314.0 1352.0 311.3999938964844 1352.0 295.3999938964844 C 1352.0 278.3000183105469 1351.9000244140625 276.8999938964844 1350.300048828125 277.20001220703125 C 1348.7000732421875 277.5 1348.5 279.3000183105469 1348.2000732421875 294.5 C 1348.0999755859375 303.8000183105469 1348.2000732421875 312.0 1348.4000244140625 312.70001220703125 C 1348.7000732421875 313.3999938964844 1349.5999755859375 314.0 1350.5 314.0M 1377.300048828125 313.70001220703125 C 1381.0999755859375 313.5 1384.0 312.70001220703125 1385.800048828125 311.3000183105469 C 1387.300048828125 310.20001220703125 1389.5 307.8000183105469 1390.800048828125 306.0 C 1392.0999755859375 304.0 1393.0 301.20001220703125 1393.0 298.8999938964844 L 1393.0 295.0 L 1385.5 295.0 C 1378.7000732421875 295.0 1378.0 295.20001220703125 1378.0 297.0 C 1378.0 298.8000183105469 1378.7000732421875 299.0 1383.5 299.0 C 1387.2000732421875 299.0 1389.0 299.3999938964844 1389.0 300.3000183105469 C 1389.0 300.8999938964844 1388.0999755859375 302.8000183105469 1387.0999755859375 304.3999938964844 C 1386.0 306.0 1384.0999755859375 307.8999938964844 1382.800048828125 308.6000061035156 C 1381.5 309.3999938964844 1378.7000732421875 309.8999938964844 1376.5 310.0 C 1374.2000732421875 310.0 1371.0999755859375 309.1000061035156 1369.2000732421875 308.0 C 1367.4000244140625 306.8999938964844 1365.0999755859375 304.6000061035156 1364.0 302.8000183105469 C 1362.9000244140625 300.8999938964844 1362.0 297.70001220703125 1362.0 295.5 C 1362.0 293.3000183105469 1362.9000244140625 290.1000061035156 1364.0 288.20001220703125 C 1365.0999755859375 286.3999938964844 1367.4000244140625 284.1000061035156 1369.2000732421875 283.0 C 1371.0 281.8999938964844 1374.2000732421875 281.0 1376.300048828125 281.0 C 1378.4000244140625 281.0 1381.0999755859375 281.5 1382.300048828125 282.1000061035156 C 1383.5 282.70001220703125 1385.5 284.20001220703125 1386.800048828125 285.3000183105469 C 1388.800048828125 287.20001220703125 1389.2000732421875 287.20001220703125 1390.5999755859375 285.8000183105469 C 1392.0 284.3999938964844 1391.800048828125 284.0 1388.4000244140625 281.1000061035156 C 1386.300048828125 279.3999938964844 1383.0 277.70001220703125 1381.2000732421875 277.3999938964844 C 1379.4000244140625 277.0 1375.800048828125 277.0 1373.2000732421875 277.3999938964844 C 1370.300048828125 277.8000183105469 1367.2000732421875 279.1000061035156 1365.0 280.8000183105469 C 1363.0999755859375 282.3999938964844 1360.7000732421875 285.20001220703125 1359.800048828125 287.1000061035156 C 1358.800048828125 289.0 1358.0 292.6000061035156 1358.0 295.20001220703125 C 1358.0 297.8000183105469 1358.5 301.1000061035156 1359.0999755859375 302.70001220703125 C 1359.5999755859375 304.20001220703125 1361.300048828125 306.8000183105469 1362.800048828125 308.3999938964844 C 1364.300048828125 310.0 1366.9000244140625 311.8999938964844 1368.5 312.6000061035156 C 1370.300048828125 313.5 1373.800048828125 313.8999938964844 1377.300048828125 313.70001220703125M 1408.2000732421875 313.8000183105469 C 1416.0999755859375 313.5 1417.5 313.20001220703125 1417.800048828125 311.8000183105469 C 1418.0999755859375 310.20001220703125 1417.2000732421875 310.0 1410.5999755859375 310.0 L 1403.0 310.0 L 1403.0 303.0 L 1403.0 296.0 L 1410.0 296.0 C 1416.300048828125 296.0 1417.0 295.8000183105469 1417.0 294.0 C 1417.0 292.20001220703125 1416.300048828125 292.0 1410.0 292.0 L 1403.0 292.0 L 1403.0 287.0 L 1403.0 282.0 L 1409.9000244140625 282.0 C 1415.300048828125 282.0 1416.9000244140625 281.70001220703125 1417.4000244140625 280.3999938964844 C 1417.7000732421875 279.5 1417.800048828125 278.3999938964844 1417.4000244140625 277.8999938964844 C 1417.0999755859375 277.3999938964844 1412.9000244140625 277.0 1407.9000244140625 277.0 L 1399.0 277.0 L 1399.0 295.5 L 1399.0 314.1000061035156 L 1408.2000732421875 313.8000183105469M 1471.0 313.8000183105469 C 1472.300048828125 313.5 1472.5 311.0 1472.800048828125 297.8000183105469 L 1473.0999755859375 282.1000061035156 L 1476.800048828125 281.8000183105469 C 1479.800048828125 281.6000061035156 1480.5999755859375 281.1000061035156 1480.800048828125 279.3000183105469 C 1481.0999755859375 277.0 1481.0 277.0 1470.5 277.0 C 1460.0 277.0 1459.9000244140625 277.0 1460.2000732421875 279.3000183105469 C 1460.4000244140625 281.1000061035156 1461.2000732421875 281.6000061035156 1464.300048828125 281.8000183105469 L 1468.0 282.1000061035156 L 1468.0 297.3999938964844 C 1468.0 305.8000183105469 1468.300048828125 313.0 1468.7000732421875 313.3999938964844 C 1469.0999755859375 313.8000183105469 1470.0999755859375 313.8999938964844 1471.0 313.8000183105469"/>
    <path d="M 1227.9000244140625 352.0 C 1224.5999755859375 352.0 1223.0 351.6000061035156 1223.0 350.8000183105469 C 1223.0999755859375 350.1000061035156 1224.300048828125 346.8000183105469 1225.9000244140625 343.5 L 1228.5999755859375 337.5 L 1231.2000732421875 344.0 C 1232.5999755859375 347.6000061035156 1233.5999755859375 350.8000183105469 1233.300048828125 351.3000183105469 C 1233.0999755859375 351.70001220703125 1230.7000732421875 352.0 1227.9000244140625 352.0" stroke-width="1.0" fill="rgb(254, 254, 254)" opacity="0.0"/>
    <path d="M 1300.800048828125 352.0 C 1297.4000244140625 352.0 1296.0 351.6000061035156 1296.0 350.6000061035156 C 1296.0 349.8999938964844 1297.0999755859375 346.70001220703125 1298.5 343.5 C 1299.9000244140625 340.3000183105469 1301.2000732421875 337.8999938964844 1301.4000244140625 338.1000061035156 C 1301.5999755859375 338.3000183105469 1302.9000244140625 341.3000183105469 1304.300048828125 344.70001220703125 C 1305.7000732421875 348.1000061035156 1306.5 351.1000061035156 1306.2000732421875 351.3999938964844 C 1305.9000244140625 351.70001220703125 1303.5 352.0 1300.800048828125 352.0" stroke-width="1.0" fill="rgb(254, 254, 254)" opacity="0.0"/>
    <path d="M 687.0 331.0 L 678.1000366210938 331.0 L 679.5 326.8000183105469 C 680.2000122070312 324.3999938964844 682.0 318.8999938964844 683.5 314.5 C 685.0 310.1000061035156 686.5 306.1000061035156 687.0 305.70001220703125 C 687.4000244140625 305.20001220703125 689.6000366210938 310.3999938964844 691.9000244140625 317.3000183105469 C 694.1000366210938 324.1000061035156 696.0 330.0 696.0 330.3000183105469 C 696.0 330.70001220703125 692.0 331.0 687.0 331.0" stroke-width="1.0" fill="rgb(254, 254, 254)" opacity="0.0"/>
    <path d="M 879.1000366210938 331.0 C 874.1000366210938 331.0 870.0 330.70001220703125 870.0 330.3000183105469 C 870.0 329.8000183105469 871.9000244140625 324.0 874.1000366210938 317.20001220703125 C 876.4000244140625 310.3999938964844 878.6000366210938 305.20001220703125 879.0 305.70001220703125 C 879.5 306.1000061035156 881.4000244140625 311.20001220703125 883.2999877929688 317.0 C 885.2000122070312 322.8000183105469 887.1000366210938 328.3000183105469 887.5 329.3000183105469 C 888.1000366210938 330.8000183105469 887.4000244140625 331.0 879.1000366210938 331.0" stroke-width="1.0" fill="rgb(254, 254, 254)" opacity="0.0"/>
    <path d="M 116.80000305175781 496.0 C 58.70000076293945 496.0 21.0 495.6000061035156 21.0 495.1000061035156 C 21.0 494.6000061035156 30.80000114440918 469.70001220703125 42.79999923706055 439.8000183105469 L 64.5 385.5 L 160.3000030517578 385.8000183105469 C 212.90000915527344 385.8999938964844 256.0 386.3000183105469 256.0 386.8000183105469 C 256.0 387.20001220703125 246.1999969482422 411.8999938964844 234.3000030517578 441.70001220703125 L 212.60000610351562 496.0 L 116.80000305175781 496.0" stroke-width="1.0" fill="rgb(254, 221, 0)" opacity="1.0"/>
    <path d="M 212.5 207.0 C 151.5 207.0 135.90000915527344 206.6999969482422 136.3000030517578 205.8000030517578 C 136.60000610351562 205.10000610351562 153.5 162.6999969482422 174.0 111.5 C 194.40000915527344 60.400001525878906 211.5 17.899999618530273 211.90000915527344 17.100000381469727 C 212.40000915527344 16.30000114440918 227.0 51.5 250.5 110.0999984741211 C 271.20001220703125 162.0 288.3999938964844 205.10000610351562 288.70001220703125 205.8000030517578 C 289.1000061035156 206.6999969482422 273.5 207.0 212.5 207.0" stroke-width="1.0" fill="rgb(254, 221, 0)" opacity="1.0"/>
    <path d="M 501.0 496.0 L 404.8999938964844 496.0 L 403.1000061035156 491.8000183105469 C 402.1000061035156 489.3999938964844 392.3999938964844 465.20001220703125 381.5 438.0 C 370.70001220703125 410.8000183105469 361.5 387.8999938964844 361.3000183105469 387.20001220703125 C 360.8999938964844 386.20001220703125 380.1000061035156 386.0 457.0 386.20001220703125 L 553.2999877929688 386.5 L 573.4000244140625 437.0 C 584.6000366210938 464.8000183105469 594.4000244140625 489.3999938964844 595.2999877929688 491.8000183105469 L 597.0 496.0 L 501.0 496.0" stroke-width="1.0" fill="rgb(0, 173, 239)" opacity="1.0"/>
    <path d="M 404.6000061035156 207.0 L 328.20001220703125 207.0 L 333.8999938964844 192.8000030517578 C 337.0 184.90000915527344 354.20001220703125 142.0 372.0 97.30000305175781 C 389.8999938964844 52.60000228881836 404.8000183105469 16.399999618530273 405.20001220703125 16.80000114440918 C 405.5 17.200000762939453 422.70001220703125 59.900001525878906 443.3999938964844 111.5999984741211 C 464.1000061035156 163.40000915527344 481.0 206.0 481.0 206.40000915527344 C 481.0 206.6999969482422 446.6000061035156 207.0 404.6000061035156 207.0" stroke-width="1.0" fill="rgb(0, 173, 239)" opacity="1.0"/>
    <path d="M 308.8000183105469 206.8000030517578 L 289.20001220703125 207.0 L 251.0 111.5 C 230.0 58.900001525878906 213.0 15.699999809265137 213.1999969482422 15.40000057220459 C 213.5 15.199999809265137 256.70001220703125 15.100000381469727 309.20001220703125 15.199999809265137 L 404.70001220703125 15.5 L 366.6000061035156 111.0 L 328.3999938964844 206.5 L 308.8000183105469 206.8000030517578" stroke-width="1.0" fill="rgb(1, 151, 0)" opacity="1.0"/>
    <path d="M 308.6000061035156 386.0 C 280.20001220703125 386.0 257.0 385.8000183105469 257.0 385.5 C 257.0 385.20001220703125 268.3000183105469 356.70001220703125 282.1000061035156 322.20001220703125 C 295.8999938964844 287.70001220703125 307.5 258.70001220703125 307.8999938964844 257.6000061035156 C 308.3999938964844 256.3000183105469 316.1000061035156 274.5 334.0 319.1000061035156 C 347.8999938964844 354.0 359.5 383.3000183105469 359.8000183105469 384.3000183105469 C 360.20001220703125 385.8999938964844 357.3000183105469 386.0 308.6000061035156 386.0" stroke-width="1.0" fill="rgb(237, 0, 139)" opacity="1.0"/>
    <path d="M 567.4000244140625 386.0 L 553.0 386.0 L 551.9000244140625 383.3000183105469 C 551.2999877929688 381.70001220703125 535.4000244140625 341.70001220703125 516.4000244140625 294.3000183105469 C 497.5 246.90000915527344 482.0 207.90000915527344 482.0 207.60000610351562 C 482.0 207.3000030517578 520.5 207.0 567.6000366210938 207.0 C 648.7000122070312 207.0 653.2000122070312 207.10000610351562 652.6000366210938 208.8000030517578 C 652.2000122070312 209.6999969482422 636.1000366210938 250.0 616.9000244140625 298.3000183105469 L 581.7999877929688 386.0 L 567.4000244140625 386.0" stroke-width="1.0" fill="rgb(237, 0, 139)" opacity="1.0"/>
    <path d="M 1280.7000732421875 367.0 C 1280.5 367.0 1274.300048828125 360.6000061035156 1266.800048828125 352.8000183105469 L 1253.0999755859375 338.5 L 1253.0999755859375 351.8000183105469 C 1253.0 364.3000183105469 1252.9000244140625 365.0 1251.0 365.0 C 1249.0999755859375 365.0 1249.0 364.3000183105469 1249.0 346.5 L 1249.0 328.0 L 1262.300048828125 342.0 C 1269.5 349.70001220703125 1275.800048828125 356.0 1276.300048828125 356.0 C 1276.7000732421875 356.0 1277.0 349.8999938964844 1277.0 342.5 C 1277.0 329.70001220703125 1277.0999755859375 329.0 1279.0 329.0 C 1280.9000244140625 329.0 1281.0 329.70001220703125 1281.0 348.0 C 1281.0 358.5 1280.9000244140625 367.0 1280.7000732421875 367.0" stroke-width="1.0" fill="rgb(66, 65, 129)" opacity="1.0"/>
    <path d="M 1093.5 365.6000061035156 C 1086.0 365.8999938964844 1081.2000732421875 365.6000061035156 1078.5 364.70001220703125 C 1076.300048828125 363.8999938964844 1072.2000732421875 362.20001220703125 1069.4000244140625 360.70001220703125 C 1066.5999755859375 359.3000183105469 1061.800048828125 355.8999938964844 1058.800048828125 353.1000061035156 C 1055.9000244140625 350.3999938964844 1052.2000732421875 346.0 1050.7000732421875 343.3000183105469 C 1049.300048828125 340.6000061035156 1047.4000244140625 335.70001220703125 1046.5 332.5 C 1045.7000732421875 329.20001220703125 1045.0 323.8000183105469 1045.0 320.5 C 1045.0 317.20001220703125 1045.7000732421875 311.8000183105469 1046.5 308.5 C 1047.4000244140625 305.3000183105469 1049.2000732421875 300.5 1050.7000732421875 297.8999938964844 C 1052.0999755859375 295.20001220703125 1055.7000732421875 290.6000061035156 1058.5999755859375 287.70001220703125 C 1061.7000732421875 284.6000061035156 1066.7000732421875 281.0 1070.2000732421875 279.3000183105469 C 1073.7000732421875 277.6000061035156 1078.9000244140625 275.70001220703125 1081.9000244140625 275.0 C 1085.2000732421875 274.20001220703125 1090.300048828125 274.0 1094.9000244140625 274.3000183105469 C 1099.0999755859375 274.6000061035156 1104.5999755859375 275.6000061035156 1107.300048828125 276.5 L 1112.0 278.20001220703125 L 1112.0 291.6000061035156 L 1112.0 305.0 L 1107.5999755859375 301.6000061035156 C 1105.0999755859375 299.8000183105469 1100.800048828125 297.70001220703125 1098.0 297.0 C 1095.2000732421875 296.3000183105469 1091.0 296.1000061035156 1088.800048828125 296.3999938964844 C 1086.5999755859375 296.8000183105469 1083.2000732421875 297.8999938964844 1081.2000732421875 298.8999938964844 C 1079.0999755859375 300.0 1076.5 301.8999938964844 1075.300048828125 303.20001220703125 C 1074.0999755859375 304.3999938964844 1072.2000732421875 307.5 1071.0999755859375 310.0 C 1069.9000244140625 312.6000061035156 1069.0 316.6000061035156 1069.0 319.5 C 1069.0 322.3000183105469 1069.4000244140625 326.0 1070.0 327.8999938964844 C 1070.5 329.8000183105469 1072.0999755859375 333.0 1073.5999755859375 335.20001220703125 C 1075.300048828125 337.5 1078.300048828125 340.0 1081.7000732421875 341.6000061035156 C 1086.4000244140625 343.8999938964844 1087.9000244140625 344.20001220703125 1094.0 343.8000183105469 C 1099.9000244140625 343.3000183105469 1101.9000244140625 342.70001220703125 1106.5 339.6000061035156 L 1112.0 336.0 L 1112.0 349.3000183105469 L 1112.0 362.70001220703125 L 1108.300048828125 363.8999938964844 C 1106.2000732421875 364.6000061035156 1099.5999755859375 365.3999938964844 1093.5 365.6000061035156" stroke-width="1.0" fill="rgb(66, 65, 129)" opacity="1.0"/>
    <path d="M 1370.4000244140625 366.0 C 1367.5999755859375 366.0 1366.0 365.20001220703125 1363.4000244140625 362.6000061035156 C 1361.5 360.70001220703125 1360.0 358.70001220703125 1360.0 358.1000061035156 C 1360.0 357.3999938964844 1360.7000732421875 356.70001220703125 1361.5999755859375 356.3000183105469 C 1362.7000732421875 355.8999938964844 1364.0 356.8000183105469 1365.7000732421875 358.8999938964844 C 1367.4000244140625 361.0 1369.0 362.0 1370.800048828125 362.0 C 1372.300048828125 362.0 1374.5999755859375 361.3000183105469 1375.800048828125 360.3999938964844 C 1377.300048828125 359.3999938964844 1378.0 357.8999938964844 1378.0 355.6000061035156 C 1378.0 353.70001220703125 1377.2000732421875 351.6000061035156 1376.300048828125 350.70001220703125 C 1375.300048828125 349.8999938964844 1372.5999755859375 348.3999938964844 1370.2000732421875 347.5 C 1367.9000244140625 346.5 1365.0999755859375 344.6000061035156 1364.0 343.20001220703125 C 1362.9000244140625 341.8999938964844 1362.0 339.3000183105469 1362.0 337.6000061035156 C 1362.0 335.8999938964844 1362.5999755859375 333.8000183105469 1363.300048828125 332.8999938964844 C 1364.0 332.0 1365.5 330.8000183105469 1366.7000732421875 330.20001220703125 C 1367.9000244140625 329.5 1370.4000244140625 329.0 1372.300048828125 329.0 C 1374.300048828125 329.0 1376.9000244140625 329.8999938964844 1378.4000244140625 331.1000061035156 C 1379.800048828125 332.20001220703125 1381.0 333.6000061035156 1381.0 334.1000061035156 C 1381.0 334.6000061035156 1380.300048828125 335.3000183105469 1379.5 335.6000061035156 C 1378.7000732421875 335.8999938964844 1377.300048828125 335.5 1376.5 334.6000061035156 C 1375.5999755859375 333.70001220703125 1373.5999755859375 333.0 1372.0999755859375 333.0 C 1370.5999755859375 333.0 1368.5999755859375 333.8000183105469 1367.7000732421875 334.8000183105469 C 1366.7000732421875 335.8000183105469 1366.0 337.3000183105469 1366.0 338.20001220703125 C 1366.0 339.0 1366.800048828125 340.3999938964844 1367.800048828125 341.20001220703125 C 1368.7000732421875 342.1000061035156 1371.300048828125 343.5 1373.5 344.3999938964844 C 1375.7000732421875 345.3999938964844 1378.5 347.0 1379.7000732421875 348.20001220703125 C 1380.9000244140625 349.3000183105469 1382.2000732421875 351.5 1382.5 353.0 C 1382.9000244140625 354.6000061035156 1382.5 357.3000183105469 1381.5999755859375 359.3000183105469 C 1380.800048828125 361.3000183105469 1378.9000244140625 363.5 1377.0999755859375 364.3999938964844 C 1375.5 365.3000183105469 1372.5 366.0 1370.4000244140625 366.0" stroke-width="1.0" fill="rgb(66, 65, 129)" opacity="1.0"/>
    <path d="M 1409.4000244140625 365.8999938964844 C 1407.2000732421875 365.8999938964844 1404.5 365.5 1403.300048828125 365.0 C 1402.0 364.5 1400.0999755859375 362.6000061035156 1399.0999755859375 360.8999938964844 C 1398.0 359.1000061035156 1397.300048828125 357.3000183105469 1397.5999755859375 356.8000183105469 C 1397.9000244140625 356.3999938964844 1398.9000244140625 356.0 1399.800048828125 356.0 C 1400.800048828125 356.0 1402.0 357.0 1402.5 358.20001220703125 C 1403.0999755859375 359.5 1404.800048828125 360.8999938964844 1406.300048828125 361.5 C 1408.4000244140625 362.20001220703125 1409.800048828125 362.1000061035156 1411.800048828125 360.8999938964844 C 1413.300048828125 360.1000061035156 1414.9000244140625 358.20001220703125 1415.4000244140625 356.70001220703125 C 1416.2000732421875 354.6000061035156 1416.0 353.6000061035156 1414.4000244140625 351.8999938964844 C 1413.4000244140625 350.70001220703125 1410.5999755859375 348.8999938964844 1408.2000732421875 347.8999938964844 C 1405.9000244140625 346.8999938964844 1402.800048828125 344.8999938964844 1401.5 343.6000061035156 C 1399.9000244140625 342.0 1399.0 340.0 1399.0 338.0 C 1399.0 335.8999938964844 1399.9000244140625 333.8999938964844 1401.9000244140625 331.8999938964844 C 1404.2000732421875 329.6000061035156 1405.7000732421875 329.0 1409.0 329.0 C 1411.2000732421875 329.0 1414.2000732421875 329.70001220703125 1415.5 330.6000061035156 C 1416.9000244140625 331.5 1418.0 332.8000183105469 1418.0 333.6000061035156 C 1418.0 334.3000183105469 1417.5 335.20001220703125 1416.9000244140625 335.5 C 1416.4000244140625 335.8999938964844 1415.0999755859375 335.5 1414.0999755859375 334.6000061035156 C 1413.0999755859375 333.70001220703125 1410.9000244140625 333.0 1409.2000732421875 333.0 C 1407.0 333.0 1405.5999755859375 333.70001220703125 1404.5 335.3999938964844 C 1403.7000732421875 336.70001220703125 1403.2000732421875 338.5 1403.5999755859375 339.3999938964844 C 1404.0 340.3000183105469 1406.9000244140625 342.3999938964844 1410.0999755859375 344.0 C 1413.300048828125 345.70001220703125 1416.800048828125 348.0 1418.0 349.20001220703125 C 1419.300048828125 350.6000061035156 1420.0 352.70001220703125 1420.0 355.3000183105469 C 1420.0 358.3999938964844 1419.300048828125 359.8999938964844 1416.5999755859375 362.6000061035156 C 1413.9000244140625 365.3000183105469 1412.4000244140625 366.0 1409.4000244140625 365.8999938964844" stroke-width="1.0" fill="rgb(66, 65, 129)" opacity="1.0"/>
    <path stroke-width="1.0" fill="rgb(66, 65, 129)" opacity="1.0" d="M 1214.4000244140625 365.0 C 1212.0 365.0 1212.0 365.0 1213.5 361.3000183105469 C 1214.4000244140625 359.20001220703125 1218.0999755859375 350.8000183105469 1221.7000732421875 342.70001220703125 C 1226.800048828125 331.5 1228.5999755859375 328.3000183105469 1229.300048828125 329.5 C 1229.800048828125 330.3999938964844 1233.300048828125 338.3999938964844 1237.0999755859375 347.20001220703125 C 1240.9000244140625 356.0 1244.0 363.70001220703125 1244.0 364.20001220703125 C 1244.0 364.70001220703125 1243.0 365.0 1241.800048828125 364.8000183105469 C 1240.2000732421875 364.6000061035156 1239.0999755859375 363.20001220703125 1237.9000244140625 360.0 L 1236.2000732421875 355.5 L 1228.5999755859375 355.20001220703125 L 1220.9000244140625 354.8999938964844 L 1218.800048828125 360.0 C 1217.0999755859375 364.0 1216.300048828125 365.0 1214.4000244140625 365.0M 1227.9000244140625 352.0 C 1230.7000732421875 352.0 1233.0999755859375 351.70001220703125 1233.300048828125 351.3000183105469 C 1233.5999755859375 350.8000183105469 1232.5999755859375 347.6000061035156 1231.2000732421875 344.0 L 1228.5999755859375 337.5 L 1225.9000244140625 343.5 C 1224.300048828125 346.8000183105469 1223.0999755859375 350.1000061035156 1223.0 350.8000183105469 C 1223.0 351.6000061035156 1224.5999755859375 352.0 1227.9000244140625 352.0"/>
    <path stroke-width="1.0" fill="rgb(66, 65, 129)" opacity="1.0" d="M 1287.300048828125 365.0 C 1286.0 365.0 1285.0 364.8000183105469 1285.0 364.5 C 1285.0 364.3000183105469 1288.4000244140625 356.3000183105469 1292.5999755859375 346.8000183105469 C 1296.800048828125 337.3000183105469 1300.5 329.20001220703125 1300.9000244140625 328.8000183105469 C 1301.300048828125 328.3000183105469 1305.0999755859375 336.1000061035156 1309.300048828125 345.8999938964844 C 1313.5 355.8000183105469 1317.0 364.1000061035156 1317.0 364.3999938964844 C 1317.0 364.70001220703125 1316.0 365.0 1314.7000732421875 365.0 C 1312.9000244140625 365.0 1312.0999755859375 364.1000061035156 1311.0999755859375 361.3000183105469 C 1310.300048828125 359.20001220703125 1309.300048828125 356.8999938964844 1308.800048828125 356.3000183105469 C 1308.0999755859375 355.5 1305.2000732421875 355.0 1300.800048828125 355.0 L 1293.9000244140625 355.0 L 1291.7000732421875 360.0 C 1290.0 363.8000183105469 1289.0 365.0 1287.300048828125 365.0M 1300.800048828125 352.0 C 1303.5 352.0 1305.9000244140625 351.70001220703125 1306.2000732421875 351.3999938964844 C 1306.5 351.1000061035156 1305.7000732421875 348.1000061035156 1304.300048828125 344.70001220703125 C 1302.9000244140625 341.3000183105469 1301.5999755859375 338.3000183105469 1301.4000244140625 338.1000061035156 C 1301.2000732421875 337.8999938964844 1299.9000244140625 340.3000183105469 1298.5 343.5 C 1297.0999755859375 346.70001220703125 1296.0 349.8999938964844 1296.0 350.6000061035156 C 1296.0 351.6000061035156 1297.4000244140625 352.0 1300.800048828125 352.0"/>
    <path d="M 1328.0 365.0 L 1321.0 365.0 L 1321.2000732421875 347.3000183105469 C 1321.5 331.3999938964844 1321.7000732421875 329.5 1323.2000732421875 329.20001220703125 C 1324.800048828125 328.8999938964844 1325.0 330.3999938964844 1325.2000732421875 345.20001220703125 L 1325.5 361.5 L 1330.300048828125 361.8000183105469 C 1333.5999755859375 362.0 1335.0 362.5 1335.0 363.6000061035156 C 1335.0 364.70001220703125 1333.4000244140625 365.0 1328.0 365.0" stroke-width="1.0" fill="rgb(66, 65, 129)" opacity="1.0"/>
    <path d="M 1345.5 365.0 C 1343.0 365.0 1343.0 364.8999938964844 1343.0 356.8999938964844 C 1343.0 349.0 1342.9000244140625 348.70001220703125 1337.5 339.3000183105469 C 1334.5 334.0 1332.0 329.5 1332.0 329.3999938964844 C 1332.0 329.20001220703125 1333.0 329.0 1334.300048828125 329.0 C 1336.0999755859375 329.0 1337.5 330.6000061035156 1340.9000244140625 336.5 C 1343.2000732421875 340.6000061035156 1345.4000244140625 344.0 1345.800048828125 344.0 C 1346.2000732421875 344.0 1348.4000244140625 340.6000061035156 1350.800048828125 336.5 C 1353.800048828125 331.1000061035156 1355.5999755859375 329.0 1357.0 329.0 C 1358.0999755859375 329.0 1359.0 329.3999938964844 1359.0 329.8999938964844 C 1359.0 330.3999938964844 1356.5 335.1000061035156 1353.5 340.3999938964844 C 1348.2000732421875 349.6000061035156 1348.0 350.1000061035156 1348.0 357.3999938964844 C 1348.0 364.8000183105469 1347.9000244140625 365.0 1345.5 365.0" stroke-width="1.0" fill="rgb(66, 65, 129)" opacity="1.0"/>
    <path d="M 1390.0 365.0 C 1388.0999755859375 365.0 1388.0 364.3000183105469 1388.0 347.0 C 1388.0 329.70001220703125 1388.0999755859375 329.0 1390.0 329.0 C 1391.9000244140625 329.0 1392.0 329.70001220703125 1392.0 347.0 C 1392.0 364.3000183105469 1391.9000244140625 365.0 1390.0 365.0" stroke-width="1.0" fill="rgb(66, 65, 129)" opacity="1.0"/>
    <path stroke-width="1.0" fill="rgb(66, 65, 129)" opacity="1.0" d="M 653.2999877929688 364.0 L 641.0 364.0 L 642.1000366210938 361.3000183105469 C 642.7000122070312 359.70001220703125 645.6000366210938 352.20001220703125 648.5 344.5 C 651.5 336.8000183105469 658.6000366210938 318.3999938964844 664.2999877929688 303.5 L 674.7000122070312 276.5 L 687.4000244140625 276.20001220703125 C 694.2999877929688 276.1000061035156 700.0 276.1000061035156 700.0 276.3000183105469 C 700.0 276.5 704.7999877929688 289.20001220703125 710.6000366210938 304.6000061035156 C 716.4000244140625 319.8999938964844 722.7000122070312 336.6000061035156 724.5 341.5 C 726.2999877929688 346.5 729.0 353.5 730.4000244140625 357.3000183105469 L 733.0 364.0 L 720.6000366210938 364.0 L 708.2000122070312 364.0 L 705.5 356.5 L 702.7000122070312 349.0 L 687.0 349.0 L 671.2999877929688 349.0 L 668.5 356.5 L 665.6000366210938 364.0 L 653.2999877929688 364.0M 687.0 331.0 C 692.0 331.0 696.0 330.70001220703125 696.0 330.3000183105469 C 696.0 330.0 694.1000366210938 324.1000061035156 691.9000244140625 317.3000183105469 C 689.6000366210938 310.3999938964844 687.4000244140625 305.20001220703125 687.0 305.70001220703125 C 686.5 306.1000061035156 685.0 310.1000061035156 683.5 314.5 C 682.0 318.8999938964844 680.2000122070312 324.3999938964844 679.5 326.8000183105469 L 678.1000366210938 331.0 L 687.0 331.0"/>
    <path d="M 750.5 364.0 L 739.0 364.0 L 739.0 320.0 L 739.0 276.0 L 750.4000244140625 276.0 L 761.7000122070312 276.0 L 780.2000122070312 299.8000183105469 C 790.2999877929688 312.8000183105469 799.5 324.70001220703125 800.6000366210938 326.20001220703125 C 801.6000366210938 327.70001220703125 802.7999877929688 329.0 803.2999877929688 329.0 C 803.7000122070312 329.0 804.0 317.1000061035156 804.0 302.5 L 804.0 275.8999938964844 L 815.2999877929688 276.20001220703125 L 826.5 276.5 L 826.7999877929688 320.3000183105469 L 827.0 364.0 L 815.2999877929688 364.0 L 803.5 364.0 L 783.5 338.1000061035156 C 772.5 323.8000183105469 763.2000122070312 312.1000061035156 762.7999877929688 312.1000061035156 C 762.2999877929688 312.0 762.0 323.70001220703125 762.0 338.0 L 762.0 364.0 L 750.5 364.0" stroke-width="1.0" fill="rgb(66, 65, 129)" opacity="1.0"/>
    <path stroke-width="1.0" fill="rgb(66, 65, 129)" opacity="1.0" d="M 845.1000366210938 363.8000183105469 C 838.5 363.8999938964844 833.0 363.8000183105469 833.0 363.5 C 833.0 363.20001220703125 839.7999877929688 345.3000183105469 848.1000366210938 323.70001220703125 C 856.4000244140625 302.20001220703125 864.0 282.6000061035156 865.0 280.3000183105469 L 866.9000244140625 276.0 L 878.9000244140625 276.0 C 889.2999877929688 276.0 891.0 276.20001220703125 891.7999877929688 277.8000183105469 C 892.2999877929688 278.70001220703125 899.7999877929688 298.20001220703125 908.4000244140625 321.1000061035156 C 917.0 344.0 924.0 363.0 924.0 363.3999938964844 C 924.0 363.8000183105469 918.5 363.8999938964844 911.9000244140625 363.8000183105469 L 899.7000122070312 363.5 L 897.1000366210938 356.5 L 894.4000244140625 349.5 L 878.6000366210938 349.5 L 862.7999877929688 349.5 L 860.0 356.5 L 857.2000122070312 363.5 L 845.1000366210938 363.8000183105469M 879.1000366210938 331.0 C 887.4000244140625 331.0 888.1000366210938 330.8000183105469 887.5 329.3000183105469 C 887.1000366210938 328.3000183105469 885.2000122070312 322.8000183105469 883.2999877929688 317.0 C 881.4000244140625 311.20001220703125 879.5 306.1000061035156 879.0 305.70001220703125 C 878.6000366210938 305.20001220703125 876.4000244140625 310.3999938964844 874.1000366210938 317.20001220703125 C 871.9000244140625 324.0 870.0 329.8000183105469 870.0 330.3000183105469 C 870.0 330.70001220703125 874.1000366210938 331.0 879.1000366210938 331.0"/>
    <path d="M 955.5 364.0 L 930.0 364.0 L 930.2000122070312 320.3000183105469 L 930.5 276.5 L 941.7000122070312 276.20001220703125 L 953.0 275.8999938964844 L 953.2000122070312 310.20001220703125 L 953.5 344.5 L 967.2999877929688 344.8000183105469 L 981.0 345.1000061035156 L 981.0 354.5 L 981.0 364.0 L 955.5 364.0" stroke-width="1.0" fill="rgb(66, 65, 129)" opacity="1.0"/>
    <path d="M 1012.0 364.0 L 987.0 364.0 L 987.0 320.0 L 987.0 276.0 L 1011.7999877929688 276.20001220703125 L 1036.5 276.5 L 1036.5 286.0 L 1036.5 295.5 L 1023.2999877929688 295.8000183105469 L 1010.0 296.1000061035156 L 1010.0 303.0 L 1010.0 310.0 L 1023.0 310.0 L 1036.0999755859375 310.0 L 1035.800048828125 319.8000183105469 L 1035.5 329.5 L 1022.7999877929688 329.8000183105469 L 1010.0 330.1000061035156 L 1010.0 337.5 L 1010.0 345.0 L 1023.5 345.0 L 1037.0 345.0 L 1037.0 354.5 L 1037.0 364.0 L 1012.0 364.0" stroke-width="1.0" fill="rgb(66, 65, 129)" opacity="1.0"/>
    <path d="M 1148.5 364.0 L 1137.0 364.0 L 1137.0 330.0 L 1137.0 296.1000061035156 L 1127.800048828125 295.8000183105469 L 1118.5 295.5 L 1118.5 286.0 L 1118.5 276.5 L 1148.800048828125 276.20001220703125 L 1179.0 276.0 L 1179.0 286.0 L 1179.0 296.0 L 1169.5 296.0 L 1160.0 296.0 L 1160.0 330.0 L 1160.0 364.0 L 1148.5 364.0" stroke-width="1.0" fill="rgb(66, 65, 129)" opacity="1.0"/>
    <path d="M 1258.800048828125 296.8000183105469 L 1258.5 314.8999938964844 L 1244.800048828125 300.70001220703125 L 1231.0999755859375 286.5 L 1231.0999755859375 300.3000183105469 C 1231.0 313.3000183105469 1230.9000244140625 314.0 1229.0 314.0 C 1227.0999755859375 314.0 1227.0 313.3000183105469 1227.0 295.1000061035156 L 1227.0 276.1000061035156 L 1240.2000732421875 289.8000183105469 C 1247.4000244140625 297.3000183105469 1253.7000732421875 303.70001220703125 1254.2000732421875 303.8000183105469 C 1254.5999755859375 304.0 1255.0 298.3000183105469 1255.0 291.1000061035156 C 1255.0 282.8000183105469 1255.4000244140625 277.8999938964844 1256.0999755859375 277.3999938964844 C 1256.7000732421875 277.1000061035156 1257.5999755859375 277.20001220703125 1258.0999755859375 277.70001220703125 C 1258.5999755859375 278.20001220703125 1258.9000244140625 286.5 1258.800048828125 296.8000183105469" stroke-width="1.0" fill="rgb(66, 65, 129)" opacity="1.0"/>
    <path d="M 1455.800048828125 297.5 L 1455.5 315.3999938964844 L 1442.0 301.1000061035156 L 1428.5 286.8999938964844 L 1428.0 300.20001220703125 C 1427.5 312.70001220703125 1427.4000244140625 313.5 1425.5 313.5 C 1423.5999755859375 313.5 1423.5 312.8000183105469 1423.300048828125 294.5 L 1423.0999755859375 275.5 L 1436.800048828125 289.8000183105469 C 1444.300048828125 297.6000061035156 1450.800048828125 304.0 1451.300048828125 304.0 C 1451.7000732421875 304.0 1452.0 297.8999938964844 1452.0 290.5 C 1452.0 279.0 1452.2000732421875 277.0 1453.5 277.0 C 1454.4000244140625 277.0 1455.300048828125 277.6000061035156 1455.5999755859375 278.3000183105469 C 1455.800048828125 279.0 1455.9000244140625 287.6000061035156 1455.800048828125 297.5" stroke-width="1.0" fill="rgb(66, 65, 129)" opacity="1.0"/>
    <path d="M 1217.7000732421875 313.8000183105469 C 1216.800048828125 314.0 1215.800048828125 313.5 1215.5 312.8000183105469 C 1215.2000732421875 312.0 1215.0999755859375 303.8000183105469 1215.2000732421875 294.5 C 1215.5 278.3000183105469 1215.5999755859375 277.5 1217.5 277.5 C 1219.4000244140625 277.5 1219.5 278.20001220703125 1219.5 295.5 C 1219.5 311.8000183105469 1219.300048828125 313.5 1217.7000732421875 313.8000183105469" stroke-width="1.0" fill="rgb(66, 65, 129)" opacity="1.0"/>
    <path d="M 1273.800048828125 313.8000183105469 C 1272.0999755859375 314.1000061035156 1272.0 312.8000183105469 1272.0 298.1000061035156 L 1272.0 282.1000061035156 L 1267.800048828125 281.8000183105469 C 1264.2000732421875 281.6000061035156 1263.4000244140625 281.1000061035156 1263.2000732421875 279.20001220703125 C 1262.9000244140625 276.8999938964844 1262.9000244140625 276.8999938964844 1273.7000732421875 277.20001220703125 C 1283.7000732421875 277.5 1284.5 277.6000061035156 1284.5 279.5 C 1284.5 281.1000061035156 1283.7000732421875 281.6000061035156 1280.300048828125 281.8000183105469 L 1276.0999755859375 282.1000061035156 L 1275.800048828125 297.8000183105469 C 1275.5 311.8000183105469 1275.300048828125 313.5 1273.800048828125 313.8000183105469" stroke-width="1.0" fill="rgb(66, 65, 129)" opacity="1.0"/>
    <path d="M 1297.7000732421875 313.8000183105469 C 1291.2000732421875 314.0 1288.800048828125 313.70001220703125 1288.5 312.8000183105469 C 1288.2000732421875 312.0 1288.0999755859375 303.8000183105469 1288.2000732421875 294.5 L 1288.5 277.5 L 1297.5 277.5 C 1305.800048828125 277.5 1306.5 277.6000061035156 1306.5 279.5 C 1306.5 281.3000183105469 1305.7000732421875 281.5 1299.300048828125 281.8000183105469 L 1292.0 282.1000061035156 L 1292.0 285.5 C 1292.0 287.3000183105469 1292.300048828125 289.5 1292.5999755859375 290.3999938964844 C 1293.0999755859375 291.6000061035156 1294.7000732421875 292.0 1300.0999755859375 292.0 C 1306.300048828125 292.0 1307.0 292.20001220703125 1307.0 294.0 C 1307.0 295.8000183105469 1306.300048828125 296.0 1300.0999755859375 296.0 C 1295.5 296.0 1293.0999755859375 296.3999938964844 1292.7000732421875 297.3000183105469 C 1292.5 297.8999938964844 1292.300048828125 301.0 1292.4000244140625 304.0 L 1292.5 309.5 L 1299.800048828125 309.8000183105469 C 1306.0999755859375 310.0 1307.0999755859375 310.3000183105469 1306.800048828125 311.8000183105469 C 1306.5 313.20001220703125 1305.0 313.5 1297.7000732421875 313.8000183105469" stroke-width="1.0" fill="rgb(66, 65, 129)" opacity="1.0"/>
    <path d="M 1320.4000244140625 313.8000183105469 C 1317.0999755859375 314.0 1314.0999755859375 313.8000183105469 1313.7000732421875 313.3999938964844 C 1313.300048828125 313.0 1313.0 304.6000061035156 1313.0 294.8000183105469 C 1313.0 278.20001220703125 1313.0999755859375 276.8999938964844 1314.800048828125 277.20001220703125 C 1316.300048828125 277.5 1316.5 279.20001220703125 1316.800048828125 293.8000183105469 L 1317.0 310.0 L 1322.0999755859375 310.0 C 1326.4000244140625 310.0 1327.0999755859375 310.3000183105469 1326.800048828125 311.8000183105469 C 1326.5 313.1000061035156 1325.300048828125 313.6000061035156 1320.4000244140625 313.8000183105469" stroke-width="1.0" fill="rgb(66, 65, 129)" opacity="1.0"/>
    <path d="M 1337.7000732421875 313.8000183105469 C 1332.800048828125 314.0 1330.800048828125 313.70001220703125 1330.5 312.8000183105469 C 1330.2000732421875 312.0 1330.0999755859375 303.8000183105469 1330.2000732421875 294.5 C 1330.5 278.3000183105469 1330.5999755859375 277.5 1332.5 277.5 C 1334.4000244140625 277.5 1334.5 278.3000183105469 1334.800048828125 293.8000183105469 L 1335.0 310.0 L 1340.0999755859375 310.0 C 1344.4000244140625 310.0 1345.0999755859375 310.3000183105469 1344.800048828125 311.8000183105469 C 1344.5 313.20001220703125 1343.2000732421875 313.6000061035156 1337.7000732421875 313.8000183105469" stroke-width="1.0" fill="rgb(66, 65, 129)" opacity="1.0"/>
    <path d="M 1350.5 314.0 C 1349.5999755859375 314.0 1348.7000732421875 313.3999938964844 1348.4000244140625 312.70001220703125 C 1348.2000732421875 312.0 1348.0999755859375 303.8000183105469 1348.2000732421875 294.5 C 1348.5 279.3000183105469 1348.7000732421875 277.5 1350.300048828125 277.20001220703125 C 1351.9000244140625 276.8999938964844 1352.0 278.3000183105469 1352.0 295.3999938964844 C 1352.0 311.3999938964844 1351.800048828125 314.0 1350.5 314.0" stroke-width="1.0" fill="rgb(66, 65, 129)" opacity="1.0"/>
    <path d="M 1377.300048828125 313.70001220703125 C 1373.800048828125 313.8999938964844 1370.300048828125 313.5 1368.5 312.6000061035156 C 1366.9000244140625 311.8999938964844 1364.300048828125 310.0 1362.800048828125 308.3999938964844 C 1361.300048828125 306.8000183105469 1359.5999755859375 304.20001220703125 1359.0999755859375 302.70001220703125 C 1358.5 301.1000061035156 1358.0 297.8000183105469 1358.0 295.20001220703125 C 1358.0 292.6000061035156 1358.800048828125 289.0 1359.800048828125 287.1000061035156 C 1360.7000732421875 285.20001220703125 1363.0999755859375 282.3999938964844 1365.0 280.8000183105469 C 1367.2000732421875 279.1000061035156 1370.300048828125 277.8000183105469 1373.2000732421875 277.3999938964844 C 1375.800048828125 277.0 1379.4000244140625 277.0 1381.2000732421875 277.3999938964844 C 1383.0 277.70001220703125 1386.300048828125 279.3999938964844 1388.4000244140625 281.1000061035156 C 1391.800048828125 284.0 1392.0 284.3999938964844 1390.5999755859375 285.8000183105469 C 1389.2000732421875 287.20001220703125 1388.800048828125 287.20001220703125 1386.800048828125 285.3000183105469 C 1385.5 284.20001220703125 1383.5 282.70001220703125 1382.300048828125 282.1000061035156 C 1381.0999755859375 281.5 1378.4000244140625 281.0 1376.300048828125 281.0 C 1374.2000732421875 281.0 1371.0 281.8999938964844 1369.2000732421875 283.0 C 1367.4000244140625 284.1000061035156 1365.0999755859375 286.3999938964844 1364.0 288.20001220703125 C 1362.9000244140625 290.1000061035156 1362.0 293.3000183105469 1362.0 295.5 C 1362.0 297.70001220703125 1362.9000244140625 300.8999938964844 1364.0 302.8000183105469 C 1365.0999755859375 304.6000061035156 1367.4000244140625 306.8999938964844 1369.2000732421875 308.0 C 1371.0999755859375 309.1000061035156 1374.2000732421875 310.0 1376.5 310.0 C 1378.7000732421875 309.8999938964844 1381.5 309.3999938964844 1382.800048828125 308.6000061035156 C 1384.0999755859375 307.8999938964844 1386.0 306.0 1387.0999755859375 304.3999938964844 C 1388.0999755859375 302.8000183105469 1389.0 300.8999938964844 1389.0 300.3000183105469 C 1389.0 299.3999938964844 1387.2000732421875 299.0 1383.5 299.0 C 1378.7000732421875 299.0 1378.0 298.8000183105469 1378.0 297.0 C 1378.0 295.20001220703125 1378.7000732421875 295.0 1385.5 295.0 L 1393.0 295.0 L 1393.0 298.8999938964844 C 1393.0 301.20001220703125 1392.0999755859375 304.0 1390.800048828125 306.0 C 1389.5 307.8000183105469 1387.300048828125 310.20001220703125 1385.800048828125 311.3000183105469 C 1384.0 312.70001220703125 1381.0999755859375 313.5 1377.300048828125 313.70001220703125" stroke-width="1.0" fill="rgb(66, 65, 129)" opacity="1.0"/>
    <path d="M 1408.2000732421875 313.8000183105469 L 1399.0 314.1000061035156 L 1399.0 295.5 L 1399.0 277.0 L 1407.9000244140625 277.0 C 1412.9000244140625 277.0 1417.0999755859375 277.3999938964844 1417.4000244140625 277.8999938964844 C 1417.800048828125 278.3999938964844 1417.7000732421875 279.5 1417.4000244140625 280.3999938964844 C 1416.9000244140625 281.70001220703125 1415.300048828125 282.0 1409.9000244140625 282.0 L 1403.0 282.0 L 1403.0 287.0 L 1403.0 292.0 L 1410.0 292.0 C 1416.300048828125 292.0 1417.0 292.20001220703125 1417.0 294.0 C 1417.0 295.8000183105469 1416.300048828125 296.0 1410.0 296.0 L 1403.0 296.0 L 1403.0 303.0 L 1403.0 310.0 L 1410.5999755859375 310.0 C 1417.2000732421875 310.0 1418.0999755859375 310.20001220703125 1417.800048828125 311.8000183105469 C 1417.5 313.20001220703125 1416.0999755859375 313.5 1408.2000732421875 313.8000183105469" stroke-width="1.0" fill="rgb(66, 65, 129)" opacity="1.0"/>
    <path d="M 1471.0 313.8000183105469 C 1470.0999755859375 313.8999938964844 1469.0999755859375 313.8000183105469 1468.7000732421875 313.3999938964844 C 1468.300048828125 313.0 1468.0 305.8000183105469 1468.0 297.3999938964844 L 1468.0 282.1000061035156 L 1464.300048828125 281.8000183105469 C 1461.2000732421875 281.6000061035156 1460.4000244140625 281.1000061035156 1460.2000732421875 279.3000183105469 C 1459.9000244140625 277.0 1460.0 277.0 1470.5 277.0 C 1481.0 277.0 1481.0999755859375 277.0 1480.800048828125 279.3000183105469 C 1480.5999755859375 281.1000061035156 1479.800048828125 281.6000061035156 1476.800048828125 281.8000183105469 L 1473.0999755859375 282.1000061035156 L 1472.800048828125 297.8000183105469 C 1472.5 311.0 1472.300048828125 313.5 1471.0 313.8000183105469" stroke-width="1.0" fill="rgb(66, 65, 129)" opacity="1.0"/>
    <path d="M 160.8000030517578 386.0 C 108.0999984741211 386.0 65.0 385.70001220703125 65.0 385.3000183105469 C 65.0 384.8000183105469 81.0 344.70001220703125 100.5 296.0 L 135.90000915527344 207.5 L 212.60000610351562 207.5 L 289.3999938964844 207.5 L 298.70001220703125 230.5 C 303.70001220703125 243.1999969482422 307.8999938964844 254.40000915527344 308.0 255.5 C 308.0 256.6000061035156 296.3999938964844 286.3999938964844 282.3000183105469 321.70001220703125 L 256.6000061035156 386.0 L 160.8000030517578 386.0" stroke-width="1.0" fill="rgb(235, 0, 0)" opacity="1.0"/>
    <path d="M 457.3000183105469 386.0 C 405.1000061035156 386.0 362.0 385.6000061035156 361.3999938964844 385.20001220703125 C 360.8000183105469 384.8000183105469 348.70001220703125 355.5 334.6000061035156 320.1000061035156 L 308.8000183105469 255.60000610351562 L 314.5 241.10000610351562 C 317.70001220703125 233.10000610351562 322.1000061035156 222.10000610351562 324.3000183105469 216.6999969482422 L 328.3000183105469 207.0 L 404.8999938964844 207.1999969482422 L 481.5 207.5 L 516.7000122070312 295.5 C 536.1000366210938 343.8999938964844 552.0 384.1000061035156 552.0 384.70001220703125 C 552.0 385.70001220703125 531.6000366210938 386.0 457.3000183105469 386.0" stroke-width="1.0" fill="rgb(0, 0, 129)" opacity="1.0"/>
    <path d="M 308.70001220703125 255.60000610351562 C 308.6000061035156 255.6999969482422 304.3000183105469 245.10000610351562 299.20001220703125 232.10000610351562 C 294.1000061035156 219.10000610351562 290.0 208.1999969482422 290.0 207.8000030517578 C 290.0 207.3000030517578 298.6000061035156 207.0 309.1000061035156 207.0 C 324.0 207.0 328.1000061035156 207.3000030517578 327.70001220703125 208.3000030517578 C 327.3999938964844 208.90000915527344 323.1000061035156 219.90000915527344 318.0 232.5 C 313.0 245.1999969482422 308.70001220703125 255.60000610351562 308.70001220703125 255.60000610351562" stroke-width="1.0" fill="rgb(0, 0, 0)" opacity="1.0"/>
  </g>
</svg>
